<svg width="76" height="89" viewBox="0 0 76 89" fill="none" xmlns="http://www.w3.org/2000/svg">
<rect x="1" y="1" width="74" height="87" rx="7" fill="white" stroke="black" stroke-width="2"/>
<path fill-rule="evenodd" clip-rule="evenodd" d="M29.7493 20.6128C29.4823 20.8858 25.7833 24.5418 21.5303 28.7378C17.2773 32.9348 13.6403 36.5488 13.4473 36.7688C13.2543 36.9898 12.8443 37.4128 12.5353 37.7088C10.7133 39.4568 10.2313 40.0158 10.0973 40.5348C9.93232 41.1708 9.99332 78.6578 10.1593 78.8278C10.4403 79.1158 64.8133 78.8888 65.1043 78.5978C65.3923 78.3098 65.7063 62.9528 65.4523 61.5938C65.2943 60.7528 65.7643 60.7738 47.4233 60.7818C32.6553 60.7888 31.3733 60.7668 31.1603 60.5108C30.9673 60.2788 30.9223 56.9958 30.8843 40.3838C30.8333 17.6788 30.9323 19.4088 29.7493 20.6128Z" fill="black"/>
<path fill-rule="evenodd" clip-rule="evenodd" d="M10.1127 10.1079C9.97874 10.3259 9.95574 29.1119 10.0897 29.3289C10.4187 29.8599 10.8137 29.4929 21.9487 18.3349C26.1947 14.0799 29.6677 10.4989 29.6677 10.3759C29.6677 10.1969 28.8717 10.1539 25.5427 10.1539C23.2747 10.1539 18.8987 10.1039 15.8197 10.0439C12.0007 9.96889 10.1867 9.98989 10.1127 10.1079ZM30.8927 28.9869C30.8927 29.7659 30.9217 30.0849 30.9567 29.6959C30.9917 29.3059 30.9917 28.6689 30.9567 28.2789C30.9217 27.8889 30.8927 28.2079 30.8927 28.9869ZM28.9497 28.3619C28.4307 28.8759 28.4287 28.8829 28.9107 28.4889C29.1897 28.2599 29.4897 28.0159 29.5767 27.9469C29.6637 27.8769 29.6807 27.8209 29.6157 27.8209C29.5497 27.8209 29.2507 28.0639 28.9497 28.3619Z" fill="#063EE2"/>
</svg>
