<svg width="132" height="34" viewBox="0 0 132 34" fill="none" xmlns="http://www.w3.org/2000/svg">
<path fill-rule="evenodd" clip-rule="evenodd" d="M8.86084 7.89584C8.74104 8.01798 7.08143 9.65362 5.17325 11.5309C3.26508 13.4085 1.63329 15.0254 1.54669 15.1238C1.4601 15.2227 1.27615 15.4119 1.13751 15.5444C0.320041 16.3264 0.103784 16.5765 0.043663 16.8087C-0.0303668 17.0932 -0.00299806 33.8644 0.0714804 33.9404C0.197555 34.0693 24.5928 33.9677 24.7234 33.8375C24.8526 33.7087 24.9935 26.8382 24.8795 26.2302C24.8087 25.8539 25.0195 25.8633 16.7906 25.8669C10.1647 25.87 9.58947 25.8602 9.49391 25.7457C9.40731 25.6419 9.38712 24.1731 9.37007 16.7411C9.34719 6.58321 9.39161 7.35719 8.86084 7.89584ZM30.3281 10.0657C30.2048 10.0939 30.1617 10.1211 30.2321 10.1261C30.303 10.131 30.4111 10.2272 30.4722 10.3399C30.5776 10.5332 30.5839 10.5354 30.587 10.3775C30.5884 10.2849 30.6234 10.2097 30.6646 10.2097C30.7714 10.2097 30.7571 10.0822 30.6458 10.0451C30.5946 10.0276 30.4515 10.037 30.3281 10.0657ZM27.3746 11.0298C27.3746 11.287 27.3939 11.2978 27.5585 11.1336C27.6514 11.0414 27.659 10.9904 27.5922 10.9099C27.4544 10.7444 27.3746 10.7882 27.3746 11.0298ZM111.959 11.1005C111.991 11.1967 112.094 11.2141 112.103 11.1246C112.106 11.0951 112.068 11.0575 112.019 11.041C111.97 11.0244 111.943 11.0513 111.959 11.1005ZM27.4253 11.7496C27.3975 11.7774 27.3746 11.9693 27.3746 12.1755C27.3746 12.588 27.4778 12.5719 27.5509 12.1483C27.5962 11.8879 27.5222 11.653 27.4253 11.7496ZM112.08 11.8315C112.035 11.9272 112.107 12.894 112.16 12.894C112.187 12.894 112.214 12.6422 112.219 12.3348C112.227 11.8503 112.169 11.6423 112.08 11.8315ZM27.3746 16.6968C27.3746 18.8291 27.4024 20.5739 27.4369 20.5739C27.5379 20.5739 27.6186 17.4632 27.519 17.4019C27.4459 17.3572 27.5204 13.9114 27.5958 13.8653C27.6357 13.8407 27.6406 13.7114 27.6074 13.5629C27.576 13.4206 27.5626 13.1951 27.5783 13.0618C27.5998 12.8797 27.5778 12.8193 27.4908 12.8193C27.3871 12.8193 27.3746 13.2385 27.3746 16.6968ZM69.7371 14.4049C69.7066 14.5181 69.6267 14.642 69.5594 14.6796C69.4607 14.7355 69.4554 14.7673 69.5312 14.8438C69.6967 15.0102 69.9354 14.7006 69.856 14.4219L69.7928 14.1986L69.7371 14.4049ZM111.948 15.2052C111.948 15.2876 111.996 15.3547 112.055 15.3547C112.117 15.3547 112.158 15.2907 112.152 15.2052C112.145 15.1234 112.097 15.0563 112.044 15.0563C111.991 15.0563 111.948 15.1234 111.948 15.2052ZM111.998 15.8517C111.923 15.926 111.938 16.1 112.018 16.1C112.057 16.1 112.083 16.0329 112.077 15.951C112.064 15.7824 112.066 15.7842 111.998 15.8517ZM89.0661 16.925C89.0661 16.9684 88.9732 17.1952 88.8601 17.4283C88.6192 17.9254 88.5492 19.2214 88.7596 19.2917C88.8341 19.3163 88.8525 19.2823 88.8242 19.174C88.787 19.0322 88.8337 18.7047 88.9544 18.2627C89.1616 17.5026 89.2518 16.8458 89.1486 16.8458C89.1033 16.8458 89.0661 16.8816 89.0661 16.925ZM82.0211 17.6153C82.0027 17.7102 82.0135 17.8529 82.0445 17.9321C82.0844 18.0341 82.1028 17.9835 82.1064 17.7594C82.1122 17.4113 82.0727 17.3451 82.0211 17.6153ZM66.0392 18.1974C66.0361 18.4846 66.0697 18.6465 66.1464 18.7101C66.2959 18.8335 66.2976 18.579 66.1505 18.1133L66.0446 17.7777L66.0392 18.1974ZM128.332 19.4617C128.337 20.118 128.36 20.3775 128.398 20.216C128.462 19.9484 128.437 18.5736 128.367 18.5043C128.344 18.4806 128.327 18.9114 128.332 19.4617ZM88.4366 20.1909C88.4151 20.2254 88.4415 20.3139 88.4954 20.3869C88.5734 20.4933 88.6013 20.4992 88.6331 20.4164C88.678 20.2996 88.4976 20.0929 88.4366 20.1909ZM27.362 21.4355C27.3176 22.1773 27.3871 23.1106 27.4764 22.9723C27.5693 22.8283 27.5958 21.8207 27.5092 21.7143C27.4688 21.6646 27.4571 21.5282 27.4827 21.4114C27.5087 21.2946 27.4997 21.1188 27.4639 21.0213C27.4132 20.8848 27.3894 20.9814 27.362 21.4355ZM88.4676 21.1286C88.4676 21.2288 88.5021 21.3322 88.5447 21.3581C88.5887 21.3854 88.6174 21.6803 88.6125 22.0525C88.608 22.4082 88.6273 22.758 88.656 22.8296C88.7161 22.9804 88.8395 23.0041 88.8462 22.8667C88.8489 22.8157 88.8619 22.665 88.8749 22.5325C88.888 22.3997 88.8745 22.3062 88.8444 22.3245C88.8144 22.3428 88.818 22.1831 88.8521 21.9693C88.8862 21.7554 88.901 21.5304 88.8848 21.4686C88.8687 21.4074 88.835 21.2646 88.8099 21.1519C88.7489 20.879 88.4676 20.8602 88.4676 21.1286ZM108.433 21.9907C108.346 22.0467 108.368 22.0632 108.531 22.0641C108.653 22.065 108.722 22.0337 108.695 21.9907C108.638 21.8981 108.577 21.8981 108.433 21.9907ZM27.3755 23.7991C27.375 23.9118 27.4082 24.004 27.449 24.004C27.5437 24.004 27.5437 23.8514 27.449 23.7056C27.3925 23.6188 27.3764 23.6394 27.3755 23.7991ZM39.8394 27.2578C39.8129 27.2842 39.8084 27.333 39.8295 27.3665C39.8757 27.4417 40.0866 27.3683 40.0866 27.2771C40.0866 27.2001 39.9107 27.1867 39.8394 27.2578ZM50.0371 30.1743C50.0344 30.3484 50.0447 30.4911 50.0609 30.4911C50.1242 30.4911 50.152 30.1359 50.099 30.0012C50.0591 29.8992 50.0411 29.9502 50.0371 30.1743ZM31.0747 30.3439C31.0128 30.4441 31.1757 30.5054 31.308 30.4316C31.4139 30.3725 31.409 30.3587 31.2717 30.3224C31.1846 30.3001 31.0963 30.3094 31.0747 30.3439ZM112.097 30.4911C112.097 30.704 112.09 30.7376 112.017 30.8749C111.958 30.9837 112.057 31.0875 112.218 31.0875C112.327 31.0875 112.397 30.6682 112.313 30.5126C112.2 30.3023 112.097 30.292 112.097 30.4911ZM31.4498 30.5658C31.4754 30.6065 31.5866 30.6378 31.6975 30.6351C31.8769 30.6302 31.8823 30.6231 31.7491 30.5658C31.5413 30.4768 31.3946 30.4768 31.4498 30.5658ZM67.343 31.1622C67.2116 31.2185 67.2188 31.227 67.4036 31.2315C67.5256 31.2346 67.5943 31.2056 67.5674 31.1622C67.5418 31.121 67.5149 31.0901 67.5068 31.0928C67.4992 31.0955 67.4251 31.1268 67.343 31.1622ZM100.993 31.1689L100.619 31.2132L101.03 31.2163C101.256 31.2176 101.543 31.1926 101.666 31.1604L101.89 31.1018L101.629 31.1134C101.485 31.1197 101.198 31.1447 100.993 31.1689ZM43.7329 31.215C43.8258 31.2329 43.9604 31.232 44.0322 31.2136C44.1035 31.1948 44.0272 31.1801 43.863 31.181C43.6984 31.1819 43.64 31.1971 43.7329 31.215ZM51.4343 31.2163C51.568 31.2329 51.7865 31.2329 51.9202 31.2163C52.0539 31.1997 51.9444 31.1859 51.677 31.1859C51.4096 31.1859 51.3006 31.1997 51.4343 31.2163ZM113.761 31.2136C113.833 31.2324 113.951 31.2324 114.023 31.2136C114.095 31.1948 114.036 31.1796 113.892 31.1796C113.748 31.1796 113.689 31.1948 113.761 31.2136Z" fill="#EEEEEE"/>
<path fill-rule="evenodd" clip-rule="evenodd" d="M0.0557687 0.048267C-0.00435246 0.145797 -0.0146712 8.55039 0.0454499 8.64748C0.193061 8.88504 0.370282 8.72085 5.36617 3.72891C7.27121 1.82528 8.82942 0.223195 8.82942 0.168166C8.82942 0.0880842 8.47229 0.0688465 6.97868 0.0688465C5.9611 0.0688465 3.99774 0.0464769 2.6163 0.0196338C0.902849 -0.0139202 0.08897 -0.00452459 0.0557687 0.048267ZM9.37904 8.49447C9.37904 8.84299 9.39205 8.9857 9.40775 8.81167C9.42346 8.63719 9.42346 8.3522 9.40775 8.17772C9.39205 8.00324 9.37904 8.14596 9.37904 8.49447ZM8.50728 8.21486C8.27442 8.44481 8.27353 8.44794 8.48978 8.27167C8.61496 8.16922 8.74956 8.06006 8.78859 8.02919C8.82763 7.99787 8.83525 7.97282 8.80609 7.97282C8.77648 7.97282 8.64233 8.08153 8.50728 8.21486Z" fill="#4E4FEB"/>
<path fill-rule="evenodd" clip-rule="evenodd" d="M59.6408 9.9015C59.0131 10.0406 58.5456 10.1744 58.2948 10.2872C58.2127 10.3243 57.8883 10.4692 57.5738 10.6097C56.3965 11.1354 55.4449 11.9018 54.3838 13.1777C53.7359 13.9571 53.6574 13.7638 53.7664 11.6566C53.8373 10.2778 53.8333 10.0881 53.7314 10.0129C53.4416 9.79995 50.2888 9.80442 50.1112 10.0178C50.0326 10.1122 50.0331 29.2908 50.1116 30.6401L50.1444 31.1993L51.1539 31.206C51.7089 31.2092 52.4662 31.2365 52.8364 31.266C53.832 31.3456 53.7305 31.8207 53.7534 26.9706C53.7907 18.9651 53.9351 17.5965 54.8518 16.5474C54.9052 16.4861 55.0012 16.334 55.064 16.2092C55.2255 15.8911 56.0834 14.9838 56.6419 14.5405C59.3618 12.3827 63.7313 13.0256 65.2146 15.8021C65.9769 17.2283 65.9598 17.0257 65.9598 24.6049C65.9598 30.3216 65.9724 31.015 66.0774 31.1197C66.2052 31.2472 67.0631 31.2785 67.3431 31.1662C67.4252 31.1331 67.5293 31.1353 67.5741 31.1707C67.7047 31.274 69.5963 31.2776 69.7205 31.1747C69.8103 31.1009 69.8287 30.1927 69.8412 25.3274C69.8578 18.7025 69.8439 18.8886 70.4572 17.2932C71.054 15.7421 72.8545 14.0841 74.5589 13.5159C75.6115 13.1652 77.8755 13.2332 78.6642 13.639C78.7302 13.673 78.9855 13.796 79.2313 13.9123C80.1421 14.3436 81.2746 15.6876 81.6084 16.734C81.9171 17.7021 81.9148 17.6516 81.9579 24.5261L81.9996 31.1993L82.5156 31.2217C82.7991 31.2342 83.0854 31.2204 83.1509 31.1913C83.2168 31.1622 83.3043 31.1492 83.3456 31.1622C83.3864 31.1752 83.5547 31.1944 83.7194 31.2047C83.884 31.2154 84.3551 31.2459 84.7661 31.2722C85.754 31.3362 85.6832 31.4512 85.7294 29.7073C85.9779 20.3167 85.8613 16.47 85.2758 14.7601C84.3668 12.1049 82.3778 10.4097 79.5414 9.87242C78.7674 9.72568 76.315 9.74715 75.6061 9.90642C74.3117 10.1977 72.9568 10.7694 72.2034 11.3421C70.9019 12.3317 69.7555 13.8667 69.8744 14.4604C69.904 14.608 69.874 14.7046 69.7685 14.7995C69.5774 14.9717 69.4679 14.8603 69.1054 14.1235C68.0353 11.9496 66.4717 10.5762 64.5389 10.1131C64.2715 10.0491 63.9013 9.95698 63.7165 9.90866C63.1162 9.75252 60.3371 9.7476 59.6408 9.9015ZM97.3287 9.87869C94.1266 10.365 91.5042 12.0847 89.9446 14.7207C89.4641 15.5328 88.7646 17.2413 88.87 17.3465C88.9118 17.3881 89.0661 17.0494 89.0661 16.9156C89.0661 16.8771 89.1033 16.8458 89.1487 16.8458C89.2518 16.8458 89.1617 17.5026 88.9544 18.2627C88.8337 18.7047 88.787 19.0322 88.8243 19.174C88.8525 19.2823 88.8341 19.3163 88.7597 19.2912C88.7018 19.272 88.6506 19.1754 88.6452 19.0765C88.6143 18.4721 88.6008 18.4587 88.5026 18.9338C88.3926 19.4639 88.3599 20.2299 88.4492 20.1762C88.5425 20.1198 88.6811 20.3216 88.6188 20.4227C88.5744 20.4943 88.5385 20.4835 88.4725 20.3779C88.4034 20.2688 88.3918 20.4616 88.4169 21.2696C88.4519 22.3849 88.6174 22.9348 88.6174 21.9357C88.6174 21.6427 88.5838 21.3823 88.5425 21.3568C88.5012 21.3318 88.4676 21.2289 88.4676 21.1287C88.4676 20.8602 88.7489 20.879 88.8099 21.1519C88.835 21.2647 88.8687 21.4074 88.8848 21.4687C88.901 21.5304 88.8862 21.7555 88.8521 21.9693C88.818 22.1832 88.8153 22.3424 88.8463 22.3236C88.9091 22.2847 88.8655 22.8864 88.8005 22.9513C88.7776 22.9741 88.7274 22.9437 88.6892 22.8833C88.5753 22.7039 88.6008 23.0649 88.7359 23.545C89.5264 26.3555 91.0057 28.4421 93.1252 29.7355C95.2151 31.011 97.103 31.4391 100.058 31.3067C100.573 31.2839 100.912 31.2588 100.812 31.2508C100.438 31.2217 100.726 31.1689 101.5 31.1255C103.586 31.0078 107.107 29.2134 107.772 27.9285L107.922 27.6404L107.516 27.2574C107.293 27.0471 106.952 26.6651 106.758 26.4092C106.242 25.7264 106.005 25.6723 105.517 26.1255C105.037 26.5711 102.843 27.8068 102.532 27.8068C102.487 27.8068 102.391 27.8395 102.319 27.8788C101.639 28.2569 98.8156 28.4483 97.8151 28.1844C96.9478 27.9558 96.6634 27.8529 96.0577 27.5504C94.1764 26.6096 92.7819 24.6966 92.3243 22.4279C92.257 22.0928 93.0292 21.968 94.4411 22.0856C95.4102 22.1666 108.282 22.0713 108.449 21.9823C108.535 21.9366 108.629 21.9438 108.725 22.0037C108.84 22.0749 108.914 22.0744 109.075 22.002L109.278 21.9094L109.231 20.4401C109.165 18.4032 109.029 17.5062 108.574 16.1443C106.995 11.4101 102.765 9.05326 97.3287 9.87869ZM121.781 9.90464C119.919 10.2572 117.994 11.2647 117.005 12.4033C115.584 14.0407 115.62 14.0582 115.694 11.7756C115.733 10.5296 115.725 10.0742 115.66 10.0057C115.538 9.87824 112.257 9.78608 112.036 9.90419L111.881 9.98695L111.883 20.5386C111.887 32.5442 111.81 31.3537 112.576 31.279C112.827 31.2548 113.583 31.2365 114.255 31.2387C114.991 31.2409 115.514 31.2119 115.571 31.1658C115.643 31.1058 115.667 29.82 115.68 25.3667C115.701 18.4582 115.685 18.6448 116.342 17.3187C117.625 14.7301 119.779 13.3168 122.428 13.3236C124.93 13.3298 126.571 14.2067 127.536 16.0508C128.121 17.1711 128.174 17.8802 128.22 25.2343C128.24 28.3513 128.271 30.9716 128.288 31.0575C128.34 31.304 131.655 31.3913 131.858 31.1515C132.012 30.9685 132.058 18.681 131.91 16.9577C131.616 13.5226 129.624 10.9797 126.567 10.1368C125.21 9.76281 123.077 9.65947 121.781 9.90464ZM28.0476 9.90195C27.598 9.93506 27.4172 9.97577 27.4307 10.042C27.441 10.093 27.4154 10.135 27.3746 10.135C27.3252 10.135 27.3041 12.121 27.3127 15.9699C27.3198 19.179 27.345 21.5863 27.3688 21.3197C27.4037 20.9233 27.4221 20.8723 27.4693 21.0401C27.5011 21.1528 27.5056 21.3295 27.4796 21.4324C27.4536 21.5358 27.4661 21.6615 27.5074 21.7121C27.5953 21.8203 27.5707 22.8269 27.4764 22.9723C27.4347 23.0368 27.3943 22.9003 27.3625 22.5871C27.3356 22.3205 27.3261 22.673 27.3414 23.3701C27.3566 24.0675 27.3876 24.7386 27.4096 24.8617C27.4311 24.9847 27.4679 25.2026 27.4903 25.3462C27.6276 26.2159 28.6726 28.5342 28.9611 28.6099C29.0346 28.6286 29.0943 28.6761 29.0943 28.7145C29.0943 28.8447 29.5713 29.378 29.6574 29.3449C29.705 29.3266 29.7992 29.4062 29.8674 29.5212C30.0195 29.778 30.7827 30.2956 31.0384 30.3153C31.4238 30.3453 31.4534 30.3524 31.3565 30.3913C31.2282 30.4428 31.2389 30.5408 31.3789 30.594C31.4453 30.6195 31.4754 30.607 31.4494 30.5649C31.3946 30.4763 31.5418 30.4768 31.7491 30.5658C31.8859 30.6244 31.8832 30.6302 31.7114 30.6356L31.5247 30.641L31.7114 30.7367C32.7146 31.2499 36.5076 31.623 36.9648 31.2539C37.0164 31.2123 37.26 31.1604 37.5068 31.1385C39.004 31.0038 41.1818 29.6881 42.5144 28.1137C43.3444 27.1326 43.339 27.1241 43.282 29.3306C43.2582 30.241 43.2668 31.0307 43.3004 31.0852C43.3632 31.1864 43.7356 31.2096 45.9942 31.2544L47.0037 31.274L47.0558 30.6777C47.1666 29.416 47.1616 10.0939 47.0504 9.96011C46.9037 9.78339 43.6499 9.77355 43.3987 9.94893C43.2385 10.0612 43.2381 10.0737 43.23 13.3231C43.212 20.5166 43.1035 22.75 42.7324 23.5566C41.3981 26.4548 39.4437 27.7817 36.5345 27.7643C33.7147 27.7468 32.0596 26.479 31.3839 23.8175C31.1685 22.9692 31.1138 21.3134 31.1138 15.6388C31.1133 12.5344 31.0882 9.97935 31.0572 9.96011C30.9558 9.89793 28.6973 9.85453 28.0476 9.90195ZM30.7396 10.1431C30.7396 10.1798 30.7059 10.2098 30.6647 10.2098C30.6234 10.2098 30.5884 10.2849 30.587 10.3775C30.5839 10.5354 30.5776 10.5332 30.4722 10.3399C30.4112 10.2272 30.303 10.131 30.2321 10.1261C30.1617 10.1212 30.2048 10.0939 30.3282 10.0657C30.5745 10.0089 30.7396 10.0397 30.7396 10.1431ZM27.5922 10.9099C27.659 10.9904 27.6514 11.0414 27.5585 11.1336C27.3939 11.2978 27.3746 11.2871 27.3746 11.0298C27.3746 10.7882 27.4544 10.7444 27.5922 10.9099ZM112.103 11.1247C112.094 11.2141 111.991 11.1967 111.959 11.1005C111.943 11.0513 111.97 11.0244 112.019 11.041C112.068 11.0576 112.106 11.0951 112.103 11.1247ZM27.5509 12.1483C27.4778 12.572 27.3746 12.5881 27.3746 12.1756C27.3746 11.9693 27.3975 11.7774 27.4253 11.7497C27.5222 11.653 27.5962 11.8879 27.5509 12.1483ZM112.219 12.3348C112.214 12.6422 112.187 12.8941 112.16 12.8941C112.107 12.8941 112.035 11.9273 112.08 11.8315C112.169 11.6423 112.227 11.8503 112.219 12.3348ZM27.5783 13.0618C27.5626 13.1952 27.576 13.4206 27.6074 13.5629C27.6406 13.7114 27.6357 13.8407 27.5958 13.8653C27.5204 13.9114 27.4459 17.3572 27.5191 17.4019C27.6187 17.4632 27.5379 20.5739 27.437 20.5739C27.4024 20.5739 27.3746 18.8291 27.3746 16.6969C27.3746 13.2386 27.3871 12.8194 27.4908 12.8194C27.5778 12.8194 27.5998 12.8798 27.5783 13.0618ZM100.771 13.0296C102.832 13.3397 104.502 14.6917 105.395 16.7702C105.735 17.5621 105.956 18.7517 105.793 18.9141C105.612 19.0944 103.825 19.1521 98.3301 19.1548C92.7896 19.1575 92.3203 19.1418 92.2467 18.9508C92.1951 18.8175 92.3476 17.9585 92.441 17.856C92.4764 17.8171 92.5056 17.7294 92.5056 17.661C92.5056 17.2905 93.5729 15.5216 94.2262 14.8089C95.5762 13.3361 98.1529 12.6355 100.771 13.0296ZM112.152 15.2053C112.158 15.2907 112.117 15.3547 112.055 15.3547C111.996 15.3547 111.948 15.2876 111.948 15.2053C111.948 15.1234 111.991 15.0563 112.044 15.0563C112.097 15.0563 112.145 15.1234 112.152 15.2053ZM1.12451 15.4804C0.928443 15.6853 0.866078 15.7833 0.972861 15.7171C1.13752 15.6146 1.56375 15.131 1.48928 15.131C1.47178 15.131 1.30757 15.288 1.12451 15.4804ZM112.077 15.9511C112.083 16.0329 112.057 16.1 112.018 16.1C111.938 16.1 111.923 15.926 111.998 15.8517C112.066 15.7842 112.064 15.7824 112.077 15.9511ZM0.42863 16.1618C0.292236 16.3121 0.262175 16.4333 0.379277 16.3613C0.457345 16.3134 0.630082 16.0258 0.580728 16.0258C0.565474 16.0258 0.496828 16.0871 0.42863 16.1618ZM82.1064 17.7594C82.1028 17.9835 82.0844 18.0341 82.0445 17.9321C81.9915 17.7974 82.0194 17.4422 82.0831 17.4422C82.0988 17.4422 82.1091 17.5849 82.1064 17.7594ZM66.2577 18.626C66.2586 18.7745 66.2411 18.7879 66.1465 18.7101C66.0697 18.6466 66.0361 18.4846 66.0392 18.1974L66.0446 17.7777L66.1505 18.1133C66.2088 18.298 66.2568 18.5285 66.2577 18.626ZM128.433 19.2586C128.446 19.6496 128.43 20.0809 128.398 20.216C128.36 20.3775 128.337 20.118 128.332 19.4617C128.323 18.3271 128.398 18.1768 128.433 19.2586ZM27.5226 23.911C27.5235 23.962 27.4903 24.004 27.4491 24.004C27.4082 24.004 27.375 23.9119 27.3755 23.7991C27.3768 23.5888 27.5204 23.698 27.5226 23.911ZM24.1218 25.8683C24.4699 25.9564 24.8194 25.9564 24.6826 25.8683C24.6207 25.8285 24.4188 25.7994 24.2339 25.8034C23.927 25.8106 23.9172 25.8164 24.1218 25.8683ZM40.0866 27.2771C40.0866 27.3684 39.8758 27.4417 39.8295 27.3666C39.8085 27.333 39.8129 27.2842 39.8394 27.2579C39.9108 27.1867 40.0866 27.2001 40.0866 27.2771ZM112.313 30.5126C112.397 30.6683 112.327 31.0875 112.218 31.0875C112.057 31.0875 111.958 30.9837 112.017 30.875C112.09 30.7376 112.097 30.7041 112.097 30.4911C112.097 30.292 112.2 30.3023 112.313 30.5126Z" fill="white"/>
</svg>
