<svg width="295" height="76" viewBox="0 0 295 76" fill="none" xmlns="http://www.w3.org/2000/svg">
<path fill-rule="evenodd" clip-rule="evenodd" d="M19.7493 17.6489C19.4823 17.9219 15.7833 21.5779 11.5303 25.7739C7.27732 29.9709 3.64032 33.5849 3.44732 33.8049C3.25432 34.0259 2.84432 34.4489 2.53532 34.7449C0.713317 36.4929 0.231318 37.0519 0.0973175 37.5709C-0.0676825 38.2069 -0.00668217 75.6939 0.159318 75.8639C0.440318 76.1519 54.8133 75.9249 55.1043 75.6339C55.3923 75.3459 55.7063 59.9889 55.4523 58.6299C55.2943 57.7889 55.7643 57.8099 37.4233 57.8179C22.6553 57.8249 21.3733 57.8029 21.1603 57.5469C20.9673 57.3149 20.9223 54.0319 20.8843 37.4199C20.8333 14.7149 20.9323 16.4449 19.7493 17.6489ZM67.5963 22.4989C67.3213 22.5619 67.2253 22.6229 67.3823 22.6339C67.5403 22.6449 67.7813 22.8599 67.9173 23.1119C68.1523 23.5439 68.1663 23.5489 68.1733 23.1959C68.1763 22.9889 68.2543 22.8209 68.3463 22.8209C68.5843 22.8209 68.5523 22.5359 68.3043 22.4529C68.1903 22.4139 67.8713 22.4349 67.5963 22.4989ZM61.0133 24.6539C61.0133 25.2289 61.0563 25.2529 61.4233 24.8859C61.6303 24.6799 61.6473 24.5659 61.4983 24.3859C61.1913 24.0159 61.0133 24.1139 61.0133 24.6539ZM249.538 24.8119C249.609 25.0269 249.838 25.0659 249.858 24.8659C249.865 24.7999 249.781 24.7159 249.671 24.6789C249.561 24.6419 249.501 24.7019 249.538 24.8119ZM61.1263 26.2629C61.0643 26.3249 61.0133 26.7539 61.0133 27.2149C61.0133 28.1369 61.2433 28.1009 61.4063 27.1539C61.5073 26.5719 61.3423 26.0469 61.1263 26.2629ZM249.807 26.4459C249.706 26.6599 249.868 28.8209 249.985 28.8209C250.046 28.8209 250.105 28.2579 250.116 27.5709C250.134 26.4879 250.006 26.0229 249.807 26.4459ZM61.0133 37.3209C61.0133 42.0869 61.0753 45.9869 61.1523 45.9869C61.3773 45.9869 61.5573 39.0339 61.3353 38.8969C61.1723 38.7969 61.3383 31.0949 61.5063 30.9919C61.5953 30.9369 61.6063 30.6479 61.5323 30.3159C61.4623 29.9979 61.4323 29.4939 61.4673 29.1959C61.5153 28.7889 61.4663 28.6539 61.2723 28.6539C61.0413 28.6539 61.0133 29.5909 61.0133 37.3209ZM155.432 32.1979C155.364 32.4509 155.186 32.7279 155.036 32.8119C154.816 32.9369 154.804 33.0079 154.973 33.1789C155.342 33.5509 155.874 32.8589 155.697 32.2359L155.556 31.7369L155.432 32.1979ZM249.513 33.9869C249.513 34.1709 249.621 34.3209 249.752 34.3209C249.889 34.3209 249.981 34.1779 249.967 33.9869C249.953 33.8039 249.845 33.6539 249.727 33.6539C249.609 33.6539 249.513 33.8039 249.513 33.9869ZM249.624 35.4319C249.458 35.5979 249.49 35.9869 249.669 35.9869C249.755 35.9869 249.814 35.8369 249.8 35.6539C249.772 35.2769 249.775 35.2809 249.624 35.4319ZM198.513 37.8309C198.513 37.9279 198.306 38.4349 198.054 38.9559C197.517 40.0669 197.361 42.9639 197.83 43.1209C197.996 43.1759 198.037 43.0999 197.974 42.8579C197.891 42.5409 197.995 41.8089 198.264 40.8209C198.726 39.1219 198.927 37.6539 198.697 37.6539C198.596 37.6539 198.513 37.7339 198.513 37.8309ZM182.811 39.3739C182.77 39.5859 182.794 39.9049 182.863 40.0819C182.952 40.3099 182.993 40.1969 183.001 39.6959C183.014 38.9179 182.926 38.7699 182.811 39.3739ZM147.19 40.6749C147.183 41.3169 147.258 41.6789 147.429 41.8209C147.762 42.0969 147.766 41.5279 147.438 40.4869L147.202 39.7369L147.19 40.6749ZM286.03 43.5009C286.041 44.9679 286.092 45.5479 286.177 45.1869C286.319 44.5889 286.264 41.5159 286.108 41.3609C286.056 41.3079 286.02 42.2709 286.03 43.5009ZM197.11 45.1309C197.062 45.2079 197.121 45.4059 197.241 45.5689C197.415 45.8069 197.477 45.8199 197.548 45.6349C197.648 45.3739 197.246 44.9119 197.11 45.1309ZM60.9853 47.9129C60.8863 49.5709 61.0413 51.6569 61.2403 51.3479C61.4473 51.0259 61.5063 48.7739 61.3133 48.5359C61.2233 48.4249 61.1973 48.1199 61.2543 47.8589C61.3123 47.5979 61.2923 47.2049 61.2123 46.9869C61.0993 46.6819 61.0463 46.8979 60.9853 47.9129ZM197.179 47.2269C197.179 47.4509 197.256 47.6819 197.351 47.7399C197.449 47.8009 197.513 48.4599 197.502 49.2919C197.492 50.0869 197.535 50.8689 197.599 51.0289C197.733 51.3659 198.008 51.4189 198.023 51.1119C198.029 50.9979 198.058 50.6609 198.087 50.3649C198.116 50.0679 198.086 49.8589 198.019 49.8999C197.952 49.9409 197.96 49.5839 198.036 49.1059C198.112 48.6279 198.145 48.1249 198.109 47.9869C198.073 47.8499 197.998 47.5309 197.942 47.2789C197.806 46.6689 197.179 46.6269 197.179 47.2269ZM241.679 49.1539C241.485 49.2789 241.534 49.3159 241.898 49.3179C242.168 49.3199 242.322 49.2499 242.263 49.1539C242.135 48.9469 242 48.9469 241.679 49.1539ZM61.0153 53.1959C61.0143 53.4479 61.0883 53.6539 61.1793 53.6539C61.3903 53.6539 61.3903 53.3129 61.1793 52.9869C61.0533 52.7929 61.0173 52.8389 61.0153 53.1959ZM88.7953 60.9269C88.7363 60.9859 88.7263 61.0949 88.7733 61.1699C88.8763 61.3379 89.3463 61.1739 89.3463 60.9699C89.3463 60.7979 88.9543 60.7679 88.7953 60.9269ZM111.524 67.4459C111.518 67.8349 111.541 68.1539 111.577 68.1539C111.718 68.1539 111.78 67.3599 111.662 67.0589C111.573 66.8309 111.533 66.9449 111.524 67.4459ZM69.2603 67.8249C69.1223 68.0489 69.4853 68.1859 69.7803 68.0209C70.0163 67.8889 70.0053 67.8579 69.6993 67.7769C69.5053 67.7269 69.3083 67.7479 69.2603 67.8249ZM249.846 68.1539C249.846 68.6299 249.83 68.7049 249.666 69.0119C249.536 69.2549 249.755 69.4869 250.114 69.4869C250.358 69.4869 250.513 68.5499 250.327 68.2019C250.075 67.7319 249.846 67.7089 249.846 68.1539ZM70.0963 68.3209C70.1533 68.4119 70.4013 68.4819 70.6483 68.4759C71.0483 68.4649 71.0603 68.4489 70.7633 68.3209C70.3003 68.1219 69.9733 68.1219 70.0963 68.3209ZM150.096 69.6539C149.803 69.7799 149.819 69.7989 150.231 69.8089C150.503 69.8159 150.656 69.7509 150.596 69.6539C150.539 69.5619 150.479 69.4929 150.461 69.4989C150.444 69.5049 150.279 69.5749 150.096 69.6539ZM225.096 69.6689L224.263 69.7679L225.179 69.7749C225.683 69.7779 226.321 69.7219 226.596 69.6499L227.096 69.5189L226.513 69.5449C226.192 69.5589 225.554 69.6149 225.096 69.6689ZM97.4733 69.7719C97.6803 69.8119 97.9803 69.8099 98.1403 69.7689C98.2993 69.7269 98.1293 69.6939 97.7633 69.6959C97.3963 69.6979 97.2663 69.7319 97.4733 69.7719ZM114.638 69.7749C114.936 69.8119 115.423 69.8119 115.721 69.7749C116.019 69.7379 115.775 69.7069 115.179 69.7069C114.583 69.7069 114.34 69.7379 114.638 69.7749ZM253.554 69.7689C253.715 69.8109 253.977 69.8109 254.138 69.7689C254.298 69.7269 254.167 69.6929 253.846 69.6929C253.525 69.6929 253.394 69.7269 253.554 69.7689Z" fill="#2F2F41"/>
<path fill-rule="evenodd" clip-rule="evenodd" d="M0.124333 0.107887C-0.00966738 0.325887 -0.0326662 19.1119 0.101334 19.3289C0.430334 19.8599 0.825331 19.4929 11.9603 8.33489C16.2063 4.07989 19.6793 0.498886 19.6793 0.375886C19.6793 0.196886 18.8833 0.153886 15.5543 0.153886C13.2863 0.153886 8.91033 0.103886 5.83133 0.0438855C2.01233 -0.0311145 0.198333 -0.0101134 0.124333 0.107887ZM20.9043 18.9869C20.9043 19.7659 20.9333 20.0849 20.9683 19.6959C21.0033 19.3059 21.0033 18.6689 20.9683 18.2789C20.9333 17.8889 20.9043 18.2079 20.9043 18.9869ZM18.9613 18.3619C18.4423 18.8759 18.4403 18.8829 18.9223 18.4889C19.2013 18.2599 19.5013 18.0159 19.5883 17.9469C19.6753 17.8769 19.6923 17.8209 19.6273 17.8209C19.5613 17.8209 19.2623 18.0639 18.9613 18.3619Z" fill="#063EE2"/>
<path fill-rule="evenodd" clip-rule="evenodd" d="M132.929 22.1319C131.53 22.4429 130.488 22.7419 129.929 22.9939C129.746 23.0769 129.023 23.4009 128.322 23.7149C125.698 24.8899 123.577 26.6029 121.212 29.4549C119.768 31.1969 119.593 30.7649 119.836 26.0549C119.994 22.9729 119.985 22.5489 119.758 22.3809C119.112 21.9049 112.085 21.9149 111.689 22.3919C111.514 22.6029 111.515 65.4709 111.69 68.4869L111.763 69.7369L114.013 69.7519C115.25 69.7589 116.938 69.8199 117.763 69.8859C119.982 70.0639 119.756 71.1259 119.807 60.2849C119.89 42.3909 120.212 39.3319 122.255 36.9869C122.374 36.8499 122.588 36.5099 122.728 36.2309C123.088 35.5199 125 33.4919 126.245 32.5009C132.307 27.6779 142.046 29.1149 145.352 35.3209C147.051 38.5089 147.013 38.0559 147.013 54.9969C147.013 67.7749 147.041 69.3249 147.275 69.5589C147.56 69.8439 149.472 69.9139 150.096 69.6629C150.279 69.5889 150.511 69.5939 150.611 69.6729C150.902 69.9039 155.118 69.9119 155.395 69.6819C155.595 69.5169 155.636 67.4869 155.664 56.6119C155.701 41.8039 155.67 42.2199 157.037 38.6539C158.367 35.1869 162.38 31.4809 166.179 30.2109C168.525 29.4269 173.571 29.5789 175.329 30.4859C175.476 30.5619 176.045 30.8369 176.593 31.0969C178.623 32.0609 181.147 35.0649 181.891 37.4039C182.579 39.5679 182.574 39.4549 182.67 54.8209L182.763 69.7369L183.913 69.7869C184.545 69.8149 185.183 69.7839 185.329 69.7189C185.476 69.6539 185.671 69.6249 185.763 69.6539C185.854 69.6829 186.229 69.7259 186.596 69.7489C186.963 69.7729 188.013 69.8409 188.929 69.8999C191.131 70.0429 190.973 70.2999 191.076 66.4019C191.63 45.4119 191.37 36.8139 190.065 32.9919C188.039 27.0569 183.606 23.2679 177.284 22.0669C175.559 21.7389 170.093 21.7869 168.513 22.1429C165.628 22.7939 162.608 24.0719 160.929 25.3519C158.028 27.5639 155.473 30.9949 155.738 32.3219C155.804 32.6519 155.737 32.8679 155.502 33.0799C155.076 33.4649 154.832 33.2159 154.024 31.5689C151.639 26.7099 148.154 23.6399 143.846 22.6049C143.25 22.4619 142.425 22.2559 142.013 22.1479C140.675 21.7989 134.481 21.7879 132.929 22.1319ZM216.929 22.0809C209.792 23.1679 203.947 27.0119 200.471 32.9039C199.4 34.7189 197.841 38.5379 198.076 38.7729C198.169 38.8659 198.513 38.1089 198.513 37.8099C198.513 37.7239 198.596 37.6539 198.697 37.6539C198.927 37.6539 198.726 39.1219 198.264 40.8209C197.995 41.8089 197.891 42.5409 197.974 42.8579C198.037 43.0999 197.996 43.1759 197.83 43.1199C197.701 43.0769 197.587 42.8609 197.575 42.6399C197.506 41.2889 197.476 41.2589 197.257 42.3209C197.012 43.5059 196.939 45.2179 197.138 45.0979C197.346 44.9719 197.655 45.4229 197.516 45.6489C197.417 45.8089 197.337 45.7849 197.19 45.5489C197.036 45.3049 197.01 45.7359 197.066 47.5419C197.144 50.0349 197.513 51.2639 197.513 49.0309C197.513 48.3759 197.438 47.7939 197.346 47.7369C197.254 47.6809 197.179 47.4509 197.179 47.2269C197.179 46.6269 197.806 46.6689 197.942 47.2789C197.998 47.5309 198.073 47.8499 198.109 47.9869C198.145 48.1249 198.112 48.6279 198.036 49.1059C197.96 49.5839 197.954 49.9399 198.023 49.8979C198.163 49.8109 198.066 51.1559 197.921 51.3009C197.87 51.3519 197.758 51.2839 197.673 51.1489C197.419 50.7479 197.476 51.5549 197.777 52.6279C199.539 58.9099 202.836 63.5739 207.56 66.4649C212.218 69.3159 216.426 70.2729 223.013 69.9769C224.159 69.9259 224.915 69.8699 224.693 69.8519C223.858 69.7869 224.5 69.6689 226.225 69.5719C230.876 69.3089 238.723 65.2979 240.206 62.4259L240.539 61.7819L239.635 60.9259C239.137 60.4559 238.377 59.6019 237.946 59.0299C236.795 57.5039 236.268 57.3829 235.179 58.3959C234.11 59.3919 229.22 62.1539 228.526 62.1539C228.425 62.1539 228.211 62.2269 228.052 62.3149C226.536 63.1599 220.243 63.5879 218.013 62.9979C216.08 62.4869 215.446 62.2569 214.096 61.5809C209.903 59.4779 206.795 55.2019 205.775 50.1309C205.625 49.3819 207.346 49.1029 210.493 49.3659C212.653 49.5469 241.343 49.3339 241.715 49.1349C241.906 49.0329 242.116 49.0489 242.33 49.1829C242.586 49.3419 242.751 49.3409 243.109 49.1789L243.562 48.9719L243.457 45.6879C243.311 41.1349 243.006 39.1299 241.993 36.0859C238.474 25.5039 229.046 20.2359 216.929 22.0809ZM271.429 22.1389C267.28 22.9269 262.988 25.1789 260.784 27.7239C257.616 31.3839 257.697 31.4229 257.861 26.3209C257.95 23.5359 257.931 22.5179 257.786 22.3649C257.514 22.0799 250.202 21.8739 249.709 22.1379L249.363 22.3229L249.369 45.9079C249.376 72.7429 249.205 70.0819 250.913 69.9149C251.472 69.8609 253.156 69.8199 254.654 69.8249C256.296 69.8299 257.462 69.7649 257.587 69.6619C257.748 69.5279 257.802 66.6539 257.832 56.6999C257.877 41.2579 257.843 41.6749 259.307 38.7109C262.166 32.9249 266.966 29.7659 272.872 29.7809C278.447 29.7949 282.106 31.7549 284.255 35.8769C285.56 38.3809 285.677 39.9659 285.781 56.4039C285.824 63.3709 285.893 69.2279 285.933 69.4199C286.048 69.9709 293.436 70.1659 293.888 69.6299C294.232 69.2209 294.334 41.7559 294.005 37.9039C293.35 30.2259 288.91 24.5419 282.096 22.6579C279.072 21.8219 274.317 21.5909 271.429 22.1389ZM62.5133 22.1329C61.5113 22.2069 61.1083 22.2979 61.1383 22.4459C61.1613 22.5599 61.1043 22.6539 61.0133 22.6539C60.9033 22.6539 60.8563 27.0929 60.8753 35.6959C60.8913 42.8689 60.9473 48.2499 61.0003 47.6539C61.0783 46.7679 61.1193 46.6539 61.2243 47.0289C61.2953 47.2809 61.3053 47.6759 61.2473 47.9059C61.1893 48.1369 61.2173 48.4179 61.3093 48.5309C61.5053 48.7729 61.4503 51.0229 61.2403 51.3479C61.1473 51.4919 61.0573 51.1869 60.9863 50.4869C60.9263 49.8909 60.9053 50.6789 60.9393 52.2369C60.9733 53.7959 61.0423 55.2959 61.0913 55.5709C61.1393 55.8459 61.2213 56.3329 61.2713 56.6539C61.5773 58.5979 63.9063 63.7799 64.5493 63.9489C64.7133 63.9909 64.8463 64.0969 64.8463 64.1829C64.8463 64.4739 65.9093 65.6659 66.1013 65.5919C66.2073 65.5509 66.4173 65.7289 66.5693 65.9859C66.9083 66.5599 68.6093 67.7169 69.1793 67.7609C70.0383 67.8279 70.1043 67.8439 69.8883 67.9309C69.6023 68.0459 69.6263 68.2649 69.9383 68.3839C70.0863 68.4409 70.1533 68.4129 70.0953 68.3189C69.9733 68.1209 70.3013 68.1219 70.7633 68.3209C71.0683 68.4519 71.0623 68.4649 70.6793 68.4769L70.2633 68.4889L70.6793 68.7029C72.9153 69.8499 81.3693 70.6839 82.3883 69.8589C82.5033 69.7659 83.0463 69.6499 83.5963 69.6009C86.9333 69.2999 91.7873 66.3589 94.7573 62.8399C96.6073 60.6469 96.5953 60.6279 96.4683 65.5599C96.4153 67.5949 96.4343 69.3599 96.5093 69.4819C96.6493 69.7079 97.4793 69.7599 102.513 69.8599L104.763 69.9039L104.879 68.5709C105.126 65.7509 105.115 22.5619 104.867 22.2629C104.54 21.8679 97.2883 21.8459 96.7283 22.2379C96.3713 22.4889 96.3703 22.5169 96.3523 29.7799C96.3123 45.8589 96.0703 50.8509 95.2433 52.6539C92.2693 59.1319 87.9133 62.0979 81.4293 62.0589C75.1443 62.0199 71.4553 59.1859 69.9493 53.2369C69.4693 51.3409 69.3473 47.6399 69.3473 34.9559C69.3463 28.0169 69.2903 22.3059 69.2213 22.2629C68.9953 22.1239 63.9613 22.0269 62.5133 22.1329ZM68.5133 22.6719C68.5133 22.7539 68.4383 22.8209 68.3463 22.8209C68.2543 22.8209 68.1763 22.9889 68.1733 23.1959C68.1663 23.5489 68.1523 23.5439 67.9173 23.1119C67.7813 22.8599 67.5403 22.6449 67.3823 22.6339C67.2253 22.6229 67.3213 22.5619 67.5963 22.4989C68.1453 22.3719 68.5133 22.4409 68.5133 22.6719ZM61.4983 24.3859C61.6473 24.5659 61.6303 24.6799 61.4233 24.8859C61.0563 25.2529 61.0133 25.2289 61.0133 24.6539C61.0133 24.1139 61.1913 24.0159 61.4983 24.3859ZM249.858 24.8659C249.838 25.0659 249.609 25.0269 249.538 24.8119C249.501 24.7019 249.561 24.6419 249.671 24.6789C249.781 24.7159 249.865 24.7999 249.858 24.8659ZM61.4063 27.1539C61.2433 28.1009 61.0133 28.1369 61.0133 27.2149C61.0133 26.7539 61.0643 26.3249 61.1263 26.2629C61.3423 26.0469 61.5073 26.5719 61.4063 27.1539ZM250.116 27.5709C250.105 28.2579 250.046 28.8209 249.985 28.8209C249.868 28.8209 249.706 26.6599 249.807 26.4459C250.006 26.0229 250.134 26.4879 250.116 27.5709ZM61.4673 29.1959C61.4323 29.4939 61.4623 29.9979 61.5323 30.3159C61.6063 30.6479 61.5953 30.9369 61.5063 30.9919C61.3383 31.0949 61.1723 38.7969 61.3353 38.8969C61.5573 39.0339 61.3773 45.9869 61.1523 45.9869C61.0753 45.9869 61.0133 42.0869 61.0133 37.3209C61.0133 29.5909 61.0413 28.6539 61.2723 28.6539C61.4663 28.6539 61.5153 28.7889 61.4673 29.1959ZM224.602 29.1239C229.194 29.8169 232.918 32.8389 234.908 37.4849C235.666 39.2549 236.157 41.9139 235.794 42.2769C235.391 42.6799 231.407 42.8089 219.161 42.8149C206.812 42.8209 205.766 42.7859 205.602 42.3589C205.487 42.0609 205.827 40.1409 206.035 39.9119C206.114 39.8249 206.179 39.6289 206.179 39.4759C206.179 38.6479 208.558 34.6939 210.014 33.1009C213.023 29.8089 218.766 28.2429 224.602 29.1239ZM249.967 33.9869C249.981 34.1779 249.889 34.3209 249.752 34.3209C249.621 34.3209 249.513 34.1709 249.513 33.9869C249.513 33.8039 249.609 33.6539 249.727 33.6539C249.845 33.6539 249.953 33.8039 249.967 33.9869ZM2.50632 34.6019C2.06932 35.0599 1.93032 35.2789 2.16832 35.1309C2.53532 34.9019 3.48532 33.8209 3.31932 33.8209C3.28032 33.8209 2.91432 34.1719 2.50632 34.6019ZM249.8 35.6539C249.814 35.8369 249.755 35.9869 249.669 35.9869C249.49 35.9869 249.458 35.5979 249.624 35.4319C249.775 35.2809 249.772 35.2769 249.8 35.6539ZM0.955319 36.1249C0.651319 36.4609 0.584319 36.7319 0.845319 36.5709C1.01932 36.4639 1.40432 35.8209 1.29432 35.8209C1.26032 35.8209 1.10732 35.9579 0.955319 36.1249ZM183.001 39.6959C182.993 40.1969 182.952 40.3099 182.863 40.0819C182.745 39.7809 182.807 38.9869 182.949 38.9869C182.984 38.9869 183.007 39.3059 183.001 39.6959ZM147.677 41.6329C147.679 41.9649 147.64 41.9949 147.429 41.8209C147.258 41.6789 147.183 41.3169 147.19 40.6749L147.202 39.7369L147.438 40.4869C147.568 40.8999 147.675 41.4149 147.677 41.6329ZM286.256 43.0469C286.284 43.9209 286.249 44.8849 286.177 45.1869C286.092 45.5479 286.041 44.9679 286.03 43.5009C286.01 40.9649 286.177 40.6289 286.256 43.0469ZM61.3433 53.4459C61.3453 53.5599 61.2713 53.6539 61.1793 53.6539C61.0883 53.6539 61.0143 53.4479 61.0153 53.1959C61.0183 52.7259 61.3383 52.9699 61.3433 53.4459ZM53.7633 57.8209C54.5393 58.0179 55.3183 58.0179 55.0133 57.8209C54.8753 57.7319 54.4253 57.6669 54.0133 57.6759C53.3293 57.6919 53.3073 57.7049 53.7633 57.8209ZM89.3463 60.9699C89.3463 61.1739 88.8763 61.3379 88.7733 61.1699C88.7263 61.0949 88.7363 60.9859 88.7953 60.9269C88.9543 60.7679 89.3463 60.7979 89.3463 60.9699ZM250.327 68.2019C250.513 68.5499 250.358 69.4869 250.114 69.4869C249.755 69.4869 249.536 69.2549 249.666 69.0119C249.83 68.7049 249.846 68.6299 249.846 68.1539C249.846 67.7089 250.075 67.7319 250.327 68.2019Z" fill="#353436"/>
</svg>
