<svg width="720" height="519" viewBox="0 0 720 519" fill="none" xmlns="http://www.w3.org/2000/svg">
<g clip-path="url(#clip0_50_3)">
<path opacity="0.1" d="M372.386 84.5781C326.914 92.2618 281.506 88.9679 237.825 84.1767C194.144 79.3855 150.571 73.129 105.081 75.0149C75.8176 76.2254 43.2288 82.0232 22.7963 98.8751C3.12827 115.084 0.0637116 136.956 0.0254842 156.7C-0.0254856 171.552 1.2615 186.919 11.7868 198.751C19.1009 206.957 30.3589 212.837 38.839 220.413C68.3442 246.726 59.3735 288.158 40.0113 323.385C30.926 339.912 19.8145 356.165 13.6281 373.08C7.4416 389.996 6.61971 408.122 17.6929 421.916C28.6387 435.518 49.8612 443.253 72.0204 447.248C116.963 455.365 167.035 450.325 215.481 443.495C322.696 428.376 428.809 404.726 534.693 381.133C573.869 372.398 613.218 363.625 650.961 351.036C671.923 344.027 693.266 335.305 706.805 321.728C724.007 304.526 724.441 280.997 707.863 266.935C680.046 243.362 617.086 248.593 595.57 221.642C583.732 206.804 588.886 186.652 598.309 168.85C618.513 130.674 657.562 92.9563 652.503 54.8945C649.012 28.7725 622.374 7.15491 586.669 1.52274C549.245 -4.37702 501.18 6.81086 479.633 33.0986C457.48 60.1827 412.537 77.7991 372.386 84.5781Z" fill="#4E4FEB"/>
<path d="M320.326 66.917H55.4743V191.659H320.326V66.917Z" fill="#565661"/>
<path d="M315.153 76.0916H61.5779V182.485H315.153V76.0916Z" fill="#DFE6F5"/>
<path d="M79.4301 127.45C75.7835 127.893 72.217 128.845 68.8348 130.279L75.8431 123.615C76.3495 123.073 76.9608 122.639 77.6398 122.34C78.7739 121.907 80.08 122.238 81.2396 121.856C83.1063 121.219 84.0365 118.976 85.8969 118.333C87.1712 117.9 88.5601 118.333 89.8981 118.237C92.5676 118.059 94.6829 115.88 96.0399 113.567C97.397 111.254 98.3081 108.661 100.047 106.623C102.513 103.724 106.336 102.322 109.088 99.6843C110.311 98.512 111.299 97.1358 112.471 95.9062C114.784 93.5877 117.714 91.9822 120.913 91.2808C124.111 90.5794 127.444 90.8116 130.515 91.9496C131.345 92.3693 132.255 92.6103 133.184 92.6568C133.917 92.5687 134.625 92.3371 135.268 91.9751L143.894 87.8402C148.725 89.3893 153.281 91.69 157.395 94.6574C158.034 95.2206 158.813 95.6013 159.65 95.7596C161.957 95.9444 162.938 92.9818 164.41 91.1978C166.423 88.7513 170.182 88.369 173.145 89.4967C176.107 90.6244 178.42 92.9563 180.522 95.2945C181.484 96.3713 182.498 97.5117 183.874 97.9386C185.015 98.2073 186.206 98.1788 187.333 97.8558C193.992 96.3412 199.845 92.3944 203.746 86.7889C204.338 85.9224 205.071 84.9158 206.122 84.9285C206.63 84.9767 207.117 85.1544 207.536 85.4446C211.262 87.6073 214.727 90.1896 217.864 93.141C220.247 95.3837 222.477 97.8621 225.338 99.4549C228.198 101.048 231.932 101.57 234.665 99.7799C234.219 101.557 235.939 103.265 237.73 103.641C239.52 104.017 241.374 103.501 243.196 103.265C245.713 102.953 248.267 103.163 250.699 103.883C253.13 104.604 255.387 105.818 257.328 107.451C261.412 107.902 265.307 109.412 268.629 111.83C271.951 114.248 274.585 117.491 276.269 121.238C277.62 124.354 279.41 128.527 282.768 128.011C283.896 127.839 284.979 127.087 286.087 127.374C286.833 127.646 287.493 128.112 287.999 128.724C290.879 131.528 294.81 132.885 298.435 134.605C302.06 136.325 305.73 138.785 307.004 142.588C303.863 143.028 300.76 141.76 297.632 141.231C294.504 140.702 290.687 141.263 289.19 144.066C288.591 145.2 288.394 146.647 287.342 147.379C286.623 147.783 285.801 147.967 284.979 147.908C277.838 147.999 270.784 146.341 264.432 143.079C260.124 149.343 253.747 153.889 246.42 155.917C246.216 153.152 243.336 151.138 240.559 151.1C237.781 151.062 235.194 152.54 233.053 154.286C230.968 156.009 229.157 158.039 227.682 160.307C226.453 162.218 225.433 164.276 223.764 165.786C222.095 167.296 219.483 168.086 217.565 166.901C216.501 166.264 215.819 165.085 214.774 164.384C212.398 162.798 208.766 163.957 206.676 162.001C205.166 160.587 205.141 158.089 203.695 156.611C201.866 154.744 198.598 155.369 196.552 156.981C194.507 158.593 193.144 160.937 191.264 162.747C186.39 167.442 178.93 167.844 172.151 167.971C172.151 166.461 173.094 165.149 173.756 163.798C175.636 159.975 175.12 155.356 173.393 151.476C171.666 147.596 168.863 144.353 166.117 141.167C163.021 144.468 164.441 150.221 161.657 153.808C160.53 155.267 158.822 156.191 157.643 157.631C156.172 159.402 155.025 162.18 152.731 162.008C151.61 161.925 150.705 161.084 149.947 160.256C147.023 157.07 144.327 153.043 140.078 152.215C138.415 151.89 136.695 152.113 134.981 151.967C132.236 151.639 129.693 150.362 127.791 148.355C125.89 146.349 124.75 143.741 124.57 140.983C120.977 141.957 117.129 142.792 113.535 143.767C112.535 144.041 111.446 144.315 110.477 143.939C109.203 143.436 108.566 141.996 107.515 141.11C105.966 139.836 103.692 139.887 101.742 140.307C99.7926 140.728 97.8111 141.441 95.8106 141.218C95.3971 139.395 95.2937 137.514 95.5047 135.656L88.369 135.019C87.4287 134.99 86.4992 134.81 85.6166 134.484C84.95 134.175 84.3354 133.764 83.7944 133.267C82.0364 131.575 80.5628 129.611 79.4301 127.45Z" fill="#4E4FEB"/>
<path d="M97.0084 122.907C97.8876 121.996 98.6394 120.939 99.6906 120.238C100.621 119.687 101.619 119.258 102.66 118.964C110.305 116.269 116.275 110.382 122.379 105.055C127.756 100.36 133.407 95.989 139.052 91.6247L141.199 93.192L136.045 95.2945C135.548 95.4984 134.975 95.8042 134.949 96.3394C134.972 96.6802 135.117 97.0013 135.357 97.2441C136.682 98.9516 138.173 100.774 140.282 101.252C141.288 101.481 142.505 101.449 143.13 102.271C143.379 102.678 143.551 103.127 143.639 103.596C144.455 106.374 146.972 108.279 149.444 109.789C154.327 112.761 159.621 114.998 165.155 116.428C160.971 116.301 156.839 115.465 152.935 113.956C151.769 113.53 150.652 112.982 149.603 112.318C147.379 110.866 145.71 108.706 143.55 107.164C141.39 105.622 138.307 104.8 136.134 106.323C135.542 106.744 134.968 107.342 134.223 107.304C133.477 107.266 132.948 106.552 132.311 106.113C130.687 104.953 128.419 105.724 126.679 106.705C121.477 109.667 117.313 114.158 114.752 119.569C122.529 120.087 130.242 117.857 136.542 113.268C140.302 118.532 145.764 122.338 152.005 124.041C151.087 125.156 149.577 125.52 148.233 126.042C146.4 126.769 144.744 127.88 143.376 129.3C142.008 130.719 140.96 132.415 140.301 134.274C139.261 132.866 138.512 131.265 138.096 129.565C136.029 130.725 134.03 132.002 132.107 133.388C133.936 132.21 135.439 130.591 136.478 128.68C133.172 127.875 129.688 128.249 126.628 129.737C124.398 130.833 122.334 132.541 119.849 132.674C120.012 131.339 119.699 129.988 118.967 128.86C118.234 127.731 117.128 126.896 115.842 126.501C114.09 126.01 111.828 126.214 110.885 124.653C110.67 124.206 110.48 123.746 110.318 123.277C109.592 121.652 107.667 120.837 105.89 120.888C104.112 120.939 102.437 121.665 100.793 122.385C98.4483 123.417 96.1227 124.551 93.7399 125.481C94.8166 124.564 96.0208 123.901 97.0084 122.907Z" fill="white"/>
<path d="M137.969 145.251C141.133 145.621 144.339 145.112 147.233 143.78C148.813 143.047 150.323 142.066 152.037 141.773C153.751 141.48 155.821 142.161 156.388 143.811C158.446 142.333 158.822 139.396 160.472 137.472C162.9 134.637 167.608 134.815 170.666 136.962C173.724 139.109 175.432 142.696 176.706 146.175C177.668 148.826 178.528 151.661 180.529 153.629C182.529 155.598 186.206 156.235 188.072 154.12C186.831 152.462 186.078 150.489 185.9 148.425C185.722 146.361 186.126 144.288 187.066 142.442C187.499 141.62 188.053 140.791 188.021 139.893C187.951 137.893 185.473 137.103 183.88 135.879C180.433 133.242 180.886 127.737 178.095 124.411C176.617 122.646 174.113 121.092 174.54 118.83C183.026 120.515 191.072 123.938 198.171 128.884C199.319 129.77 200.563 130.524 201.879 131.133C203.637 131.84 205.58 131.923 207.371 132.534C213.328 134.56 216.775 142.015 223.044 142.531C226.166 142.786 229.09 141.18 232.008 140.027C244.413 135.127 258.411 138.217 271.236 141.881C266.776 139.428 260.475 139.791 257.646 135.561C256.678 134.114 256.251 132.254 254.907 131.145C252.269 128.966 248.414 131.063 245.006 131.388C243.382 131.522 241.751 131.228 240.275 130.536C238.8 129.844 237.531 128.778 236.596 127.444C235.678 126.099 235.098 124.494 233.894 123.411C232.129 121.831 229.524 121.767 227.153 121.792L216.036 121.894C214.169 121.894 212.066 121.824 210.818 120.435C210.409 119.833 209.957 119.26 209.467 118.722C208.734 118.084 207.715 118.002 206.766 117.868C203.665 117.436 200.669 116.445 197.922 114.943C197.381 114.714 196.932 114.311 196.648 113.797C195.934 112.108 198.521 111.172 199.967 110.044C202.325 108.196 201.802 104.558 201.051 101.666C203.005 101.246 204.804 100.289 206.243 98.9006C203.567 96.4349 200.63 93.0709 201.783 89.6241C202.038 88.8659 202.178 87.6363 201.382 87.6554C200.311 89.982 198.525 91.906 196.285 93.1474C195.57 93.4396 194.939 93.9061 194.45 94.5044C193.641 95.7787 194.482 97.7219 193.475 98.856C193.111 99.2169 192.662 99.4799 192.169 99.6205C188.811 100.825 184.676 101.073 182.657 104.017C181.975 105.215 181.463 106.501 181.134 107.839C179.973 111.175 177.993 114.166 175.376 116.539C172.759 118.911 169.589 120.588 166.155 121.417C164.996 121.684 163.728 121.894 162.912 122.761C162.275 123.398 162.059 124.309 161.53 125.023C160.472 126.456 158.554 126.845 156.892 127.482C152.132 129.298 149.208 133.452 146.551 137.561C145.43 139.294 144.608 139.817 142.767 140.626C141.643 141.051 140.612 141.687 139.727 142.499C139.555 142.69 137.822 145.232 137.969 145.251Z" fill="white"/>
<path d="M222.088 109.757C219.983 110.855 217.76 111.71 215.462 112.306C216.556 112.618 217.605 113.07 218.584 113.65C218.255 114.971 217.481 116.139 216.392 116.957C218.941 117.04 221.356 117.976 223.809 118.645C227.88 119.747 232.091 120.11 236.309 120.474L230.575 116.288C229.734 115.651 228.829 114.975 228.619 113.956C228.535 113.013 228.778 112.071 229.307 111.286C230.76 108.54 232.524 106.03 234.194 103.431C232.142 104.138 229.447 103.552 227.599 104.412C226.446 104.947 226.242 106.081 225.554 107.03C224.626 108.196 223.439 109.129 222.088 109.757Z" fill="white"/>
<path d="M256.786 116.167C256.187 117.64 255.323 118.992 254.238 120.155C255.259 121.088 256.534 121.697 257.901 121.907C258.601 121.965 259.297 122.065 259.984 122.207C260.782 122.478 261.53 122.881 262.195 123.398C266.655 126.488 271.453 130.05 272.695 135.331C273.501 134.88 274.446 134.743 275.347 134.946C276.248 135.15 277.042 135.68 277.575 136.434C278.123 137.268 278.404 138.402 279.315 138.81C280.226 139.218 281.226 138.683 281.946 138.065C282.666 137.447 283.38 136.688 284.316 136.472C284.9 136.376 285.498 136.396 286.075 136.529L294.555 137.899C293.379 136.712 291.953 135.803 290.382 135.237C288.81 134.672 287.132 134.465 285.469 134.63C283.418 134.853 281.277 135.631 279.372 134.853C277.467 134.076 276.486 132.025 274.982 130.636C273.071 128.865 270.312 128.189 268.407 126.399C266.821 124.895 265.98 122.767 264.54 121.123C262.979 119.333 260.755 118.174 259.386 116.237C258.831 115.453 258.392 114.529 257.576 114.032C256.143 113.166 253.199 113.242 251.568 113.089C251.957 115.007 254.951 116.517 256.786 116.167Z" fill="white"/>
<path d="M109.451 99.7544C110.891 99.8531 112.335 99.8786 113.777 99.8308C113.917 99.8363 114.056 99.8033 114.179 99.7352C114.304 99.6156 114.383 99.4553 114.402 99.2829L114.918 97.002C114.94 96.7999 115.03 96.6112 115.173 96.4668C115.305 96.3932 115.454 96.3545 115.606 96.3545C115.758 96.3545 115.907 96.3932 116.039 96.4668C117.529 97.0255 118.926 97.8029 120.187 98.7732C119.643 97.1294 119.159 95.4665 118.734 93.7845L122.64 93.0964C119.677 92.3892 118.18 92.746 116.269 94.8421C115.147 96.0463 111.172 99.8627 109.451 99.7544Z" fill="white"/>
<path d="M187.9 56.379C189.86 56.379 191.449 54.7902 191.449 52.8302C191.449 50.8703 189.86 49.2815 187.9 49.2815C185.94 49.2815 184.352 50.8703 184.352 52.8302C184.352 54.7902 185.94 56.379 187.9 56.379Z" fill="#565661"/>
<path d="M165.155 70.3511L187.9 52.8302L210.881 70.3511" stroke="#565661" stroke-miterlimit="10"/>
<path d="M191.538 117.352L191.819 117.53L192.405 117.466L191.538 117.352Z" fill="url(#paint0_linear_50_3)"/>
<path d="M192.437 117.466L197.349 118.103C195.778 117.534 194.101 117.317 192.437 117.466Z" fill="url(#paint1_linear_50_3)"/>
<path d="M385.733 293.867H205.154V335.681H385.733V293.867Z" fill="#565661"/>
<path opacity="0.1" d="M385.733 293.867H205.154V335.681H385.733V293.867Z" fill="black"/>
<path d="M226.758 337.057L228.026 448.688L210.658 492.534L209.314 337.057H226.758Z" fill="#BCBEC9"/>
<path d="M207.059 301.894L382.873 302.952V334.095H207.059V301.894Z" fill="#565661"/>
<path d="M367.83 337.057L382.873 339.179V490.84L367.83 444.451V337.057Z" fill="#BCBEC9"/>
<path d="M473.319 295.542H388.588V475.593H473.319V295.542Z" fill="#EFEFF0"/>
<path d="M466.54 300.544H395.367V438.946H466.54V300.544Z" fill="#565661"/>
<path opacity="0.1" d="M466.54 300.544H395.367V438.946H466.54V300.544Z" fill="black"/>
<path d="M466.54 303.379H395.367V334.095H466.54V303.379Z" fill="#565661"/>
<path d="M466.54 337.057H395.367V402.299H466.54V337.057Z" fill="#565661"/>
<path d="M466.54 406.325H395.367V471.567H466.54V406.325Z" fill="#565661"/>
<path d="M398.336 487.316C400.869 487.316 402.923 484.692 402.923 481.455C402.923 478.218 400.869 475.593 398.336 475.593C395.802 475.593 393.748 478.218 393.748 481.455C393.748 484.692 395.802 487.316 398.336 487.316Z" fill="#565661"/>
<path d="M461.952 487.597C464.486 487.597 466.54 484.972 466.54 481.735C466.54 478.498 464.486 475.874 461.952 475.874C459.419 475.874 457.365 478.498 457.365 481.735C457.365 484.972 459.419 487.597 461.952 487.597Z" fill="#565661"/>
<path d="M204.517 492.534H210.658L208.97 297.103H199.643L204.517 492.534Z" fill="#EFEFF0"/>
<path d="M382.873 295.542V490.84H388.588V297.103L382.873 295.542Z" fill="#EFEFF0"/>
<path d="M209.269 332.183V339.179H382.873V334.095L209.269 332.183Z" fill="#EFEFF0"/>
<path d="M221.037 282.411H441.125L473.108 293V299.142L198.585 297.027V290.777L221.037 282.411Z" fill="#EFEFF0"/>
<path d="M198.585 290.777L473.108 293V299.142L198.585 297.027V290.777Z" fill="#BCBEC9"/>
<path d="M271.236 347.684L269.962 347.493C269.962 347.436 269.962 347.385 269.962 347.334C269.924 347.035 269.879 346.741 269.834 346.442C270.357 346.856 270.854 347.27 271.312 347.684H271.236Z" fill="url(#paint2_linear_50_3)"/>
<path d="M243.547 446.063C244.375 445.871 245.216 445.712 246.057 445.597C251.833 444.775 257.723 445.642 263.017 448.095C262.482 452.032 261.953 456.104 263.087 459.907C263.877 462.583 265.464 465.004 265.801 467.795C266.652 467.941 267.446 468.321 268.093 468.893C268.74 469.465 269.215 470.205 269.465 471.031C269.709 471.763 269.832 472.529 269.828 473.3C269.821 474.253 269.701 475.203 269.471 476.128C269.394 476.868 269.031 477.548 268.46 478.024C267.889 478.5 267.154 478.734 266.413 478.677C261.482 479.238 256.646 477.294 252.059 475.389L243.139 471.681C242.094 471.248 241.043 470.808 240.042 470.273C238.145 469.248 236.461 467.871 235.079 466.215C234.795 465.923 234.595 465.56 234.5 465.164C234.334 464.042 235.646 463.373 236.481 462.615C236.725 462.384 236.94 462.123 237.118 461.838C238.106 460.347 238.201 458.289 238.794 456.531C240.195 452.357 244.528 449.669 246.057 445.597C246.14 445.375 246.216 445.152 246.28 444.922" fill="#A26565"/>
<path opacity="0.1" d="M269.828 473.3C269.821 474.253 269.701 475.203 269.471 476.128C269.394 476.868 269.031 477.548 268.46 478.024C267.889 478.5 267.154 478.734 266.413 478.677C261.482 479.238 256.646 477.294 252.059 475.389L243.139 471.681C242.094 471.248 241.043 470.808 240.042 470.273C238.145 469.248 236.461 467.871 235.079 466.215C234.795 465.923 234.595 465.56 234.5 465.164C234.334 464.042 235.646 463.373 236.481 462.615C236.725 462.384 236.94 462.123 237.118 461.838C239.577 462.367 242.629 463.915 244.509 464.514C246.391 465.026 248.199 465.782 249.886 466.763C252.231 468.266 253.919 470.585 255.907 472.497C257.895 474.408 260.462 476.148 263.234 475.912C264.699 475.691 266.111 475.203 267.401 474.472L269.828 473.3Z" fill="black"/>
<path d="M259.386 382.758C259.551 383.336 259.536 383.951 259.343 384.52C259.149 385.09 258.786 385.586 258.302 385.944C257.468 386.46 256.391 386.39 255.563 386.95C254.537 387.67 254.391 389.097 254.212 390.333C253.575 394.583 251.466 398.438 249.663 402.343C247.86 406.249 246.337 410.511 247 414.754C247.452 417.634 248.867 420.705 247.541 423.298C247.216 423.935 246.732 424.502 246.363 425.12C244.547 428.153 245.579 431.995 245.509 435.525C245.536 435.917 245.449 436.308 245.261 436.652C244.982 436.978 244.639 437.242 244.254 437.43C243.607 437.905 243.076 438.52 242.7 439.23C242.323 439.939 242.112 440.724 242.081 441.526C242.028 443.131 242.221 444.734 242.655 446.279C242.725 446.903 243.001 447.486 243.438 447.936C243.946 448.271 244.545 448.44 245.152 448.42C249.155 448.744 253.081 449.699 256.786 451.249C259.201 452.255 261.545 453.517 264.113 454.001C264.361 454.078 264.623 454.104 264.881 454.077C265.14 454.049 265.39 453.969 265.617 453.842C265.939 453.551 266.162 453.165 266.254 452.74C267.241 449.49 268.242 446.139 267.904 442.762C267.757 441.31 267.369 439.889 267.267 438.436C266.821 432.702 270.701 427.529 271.931 421.871C272.485 419.323 272.485 416.685 272.88 414.111C273.95 407.058 277.837 400.731 279.334 393.755C279.542 392.454 279.866 391.175 280.302 389.932C281.417 387.231 283.998 385.039 284.055 382.115C284.09 381.471 283.921 380.833 283.571 380.292C282.97 379.633 282.172 379.186 281.296 379.018C277.818 378.068 274.277 377.361 270.701 376.903C269.069 376.582 267.404 376.467 265.744 376.559C263.588 376.812 261.516 377.544 259.679 378.7C257.27 380.203 258.85 380.566 259.386 382.758Z" fill="#454B69"/>
<path opacity="0.05" d="M259.386 382.758C259.551 383.336 259.536 383.951 259.343 384.52C259.149 385.09 258.786 385.586 258.302 385.944C257.468 386.46 256.391 386.39 255.563 386.95C254.537 387.67 254.391 389.097 254.212 390.333C253.575 394.583 251.466 398.438 249.663 402.343C247.86 406.249 246.337 410.511 247 414.754C247.452 417.634 248.867 420.705 247.541 423.298C247.216 423.935 246.732 424.502 246.363 425.12C244.547 428.153 245.579 431.995 245.509 435.525C245.536 435.917 245.449 436.308 245.261 436.652C244.982 436.978 244.639 437.242 244.254 437.43C243.607 437.905 243.076 438.52 242.7 439.23C242.323 439.939 242.112 440.724 242.081 441.526C242.028 443.131 242.221 444.734 242.655 446.279C242.725 446.903 243.001 447.486 243.438 447.936C243.946 448.271 244.545 448.44 245.152 448.42C249.155 448.744 253.081 449.699 256.786 451.249C259.201 452.255 261.545 453.517 264.113 454.001C264.361 454.078 264.623 454.104 264.881 454.077C265.14 454.049 265.39 453.969 265.617 453.842C265.939 453.551 266.162 453.165 266.254 452.74C267.241 449.49 268.242 446.139 267.904 442.762C267.757 441.31 267.369 439.889 267.267 438.436C266.821 432.702 270.701 427.529 271.931 421.871C272.485 419.323 272.485 416.685 272.88 414.111C273.95 407.058 277.837 400.731 279.334 393.755C279.542 392.454 279.866 391.175 280.302 389.932C281.417 387.231 283.998 385.039 284.055 382.115C284.09 381.471 283.921 380.833 283.571 380.292C282.97 379.633 282.172 379.186 281.296 379.018C277.818 378.068 274.277 377.361 270.701 376.903C269.069 376.582 267.404 376.467 265.744 376.559C263.588 376.812 261.516 377.544 259.679 378.7C257.27 380.203 258.85 380.566 259.386 382.758Z" fill="black"/>
<path d="M246.917 478.779H241.482L237.927 405.739L237.679 401.585L242.298 399.96L242.61 404.376L246.917 478.779Z" fill="#565661"/>
<path opacity="0.1" d="M242.61 404.376L237.927 405.739L237.679 401.585L242.298 399.96L242.61 404.376Z" fill="black"/>
<path d="M315.108 494.229L306.144 495.312L264.846 401.585L253.709 400.77L234.149 406.478L230.345 518.07H221.381L224.911 402.401L203.446 402.948L165.142 498.3H156.993L197.279 386.861L198.833 382.567L258.869 380.509L273.835 388.9L274.027 389.384L315.108 494.229Z" fill="#565661"/>
<path opacity="0.1" d="M274.027 389.384C261.125 393.271 247.733 397.514 247.733 397.514C247.733 397.514 235.519 401.776 230.345 397.514C229.693 397.005 228.964 396.603 228.186 396.322C228.857 396.802 229.582 397.202 230.345 397.514L197.279 386.855L198.827 382.567L258.869 380.509L273.836 388.9L274.027 389.384Z" fill="black"/>
<path d="M212.958 370.888L237.405 365.435C237.405 365.435 295.816 376.304 300.161 380.649C300.161 380.649 253.435 390.155 248.274 393.392C243.113 396.628 212.41 400.228 212.958 370.888Z" fill="white"/>
<path d="M202.446 309.795C200.534 315.854 195.316 321.314 188.964 321.575C188.502 321.629 188.034 321.545 187.62 321.333C186.824 320.836 186.804 319.67 187.129 318.785C187.454 317.899 188.021 317.103 188.111 316.172C188.13 315.982 188.117 315.791 188.072 315.605C187.907 314.847 187.289 314.172 186.562 314.331C187.057 313.935 187.386 313.37 187.486 312.744C187.587 312.119 187.45 311.478 187.104 310.948C186.816 310.622 186.556 310.273 186.327 309.903C185.798 308.82 186.62 307.603 186.964 306.443C187.671 303.895 185.874 301.346 185.728 298.69C185.6 296.313 186.804 294.077 187.104 291.72C187.582 287.897 185.683 284.233 185.46 280.417C185.307 277.754 185.963 275.116 186.696 272.549C187.333 270.255 188.053 267.936 188.098 265.54C188.098 263.801 187.798 262.081 187.716 260.348C187.583 258.763 187.871 257.172 188.55 255.735C188.991 254.89 189.743 254.248 190.646 253.945C192.736 253.244 194.106 254.333 194.412 256.315C194.921 259.685 194.628 263.125 195.297 266.509C195.916 269.672 196.853 272.765 198.094 275.74C199.222 278.429 200.592 281.029 201.458 283.813C202.111 286.108 202.577 288.451 202.854 290.821C203.707 297.186 204.376 303.736 202.446 309.795Z" fill="#4E4FEB"/>
<path d="M347.557 464.004C346.751 465.14 345.714 466.093 344.514 466.8C343.314 467.507 341.978 467.953 340.593 468.107C337.828 468.451 334.955 467.757 332.272 468.515C331.857 468.583 331.465 468.753 331.132 469.01C330.798 469.267 330.533 469.602 330.361 469.987C330.295 470.504 330.254 471.025 330.24 471.547C329.928 473.249 327.692 473.631 325.952 473.618L318.778 473.574C317.287 473.574 315.637 473.491 314.567 472.459C314.058 471.895 313.771 471.166 313.759 470.406C313.747 469.647 314.012 468.909 314.503 468.33C314.858 468.208 315.15 467.951 315.315 467.614C315.48 467.277 315.504 466.888 315.382 466.533C315.261 466.178 315.003 465.886 314.666 465.722C314.329 465.557 313.94 465.532 313.586 465.654C313.455 464.717 313.501 463.765 313.719 462.844C313.719 460.181 314.357 455.721 316.23 453.638C318.53 451.045 322.518 447.694 325.99 446.999C327.164 446.777 328.374 446.833 329.523 447.162C330.671 447.492 331.726 448.087 332.604 448.898C334.248 450.427 335.445 452.822 337.701 453.09C338.93 453.243 340.115 452.663 341.332 452.453C342.715 452.275 344.12 452.529 345.353 453.18C346.586 453.832 347.587 454.848 348.22 456.091C348.528 456.721 348.743 457.393 348.857 458.085C349.187 460.151 348.722 462.266 347.557 464.004Z" fill="#A26565"/>
<path opacity="0.1" d="M347.557 464.004C346.751 465.14 345.714 466.093 344.514 466.8C343.314 467.507 341.978 467.953 340.593 468.107C337.828 468.451 334.955 467.757 332.272 468.515C331.857 468.583 331.465 468.753 331.132 469.01C330.798 469.267 330.533 469.602 330.361 469.987C330.295 470.505 330.254 471.026 330.24 471.548C329.928 473.249 327.692 473.631 325.952 473.618L318.778 473.574C317.287 473.574 315.637 473.491 314.567 472.459C314.058 471.895 313.771 471.166 313.759 470.406C313.747 469.647 314.012 468.909 314.503 468.33C318.644 468.158 322.716 468.33 326.844 467.476C328.52 467.139 330.17 466.693 331.865 466.457C335.535 465.934 339.44 466.38 342.81 464.826C345.62 463.552 347.633 460.959 348.825 458.066C349.169 460.134 348.716 462.257 347.557 464.004Z" fill="black"/>
<path d="M328.628 453.931C326.08 455.906 323.092 457.448 319.88 457.614C316.669 457.779 313.261 456.339 311.687 453.549C309.387 449.452 311.426 443.756 308.61 439.997C307.73 438.819 306.463 437.984 305.532 436.843C304.602 435.703 304.067 433.989 304.895 432.779C303.895 433.161 302.837 432.192 302.544 431.16C302.251 430.128 302.436 429.02 302.258 427.975C301.792 425.203 299.072 423.426 297.766 420.966C296.46 418.507 296.638 415.315 296.492 412.403C296.166 405.309 293.525 398.518 288.974 393.067C288.107 392.035 286.998 390.983 285.648 391.034C285.883 388.702 284.329 386.472 282.316 385.3C280.302 384.128 277.907 383.733 275.575 383.503C252.046 381.184 227.529 389.932 205.064 382.573C198.814 380.528 192.787 377.107 188.964 371.742C187.475 369.701 186.41 367.381 185.831 364.922C185.252 362.462 185.172 359.911 185.594 357.42V357.33C186.48 352.807 188.869 351.692 192.825 349.628C197.393 347.213 202.167 345.211 207.09 343.645C216.647 340.657 226.937 339.58 236.8 341.772C241.406 342.804 245.847 344.512 250.459 345.512C252.275 345.907 254.104 346.187 255.945 346.423C258.806 346.78 261.679 347.015 264.559 347.347C273.767 348.407 282.836 350.447 291.611 353.431C294.88 354.54 298.148 355.808 300.958 357.815C303.185 359.43 305.069 361.474 306.497 363.826C307.926 366.178 308.872 368.791 309.279 371.513C309.546 373.386 309.553 375.336 309.96 377.151C310.347 378.677 310.858 380.169 311.489 381.611C316.933 395.071 321.382 408.913 324.799 423.024C324.993 424.072 325.352 425.083 325.863 426.019C326.678 427.338 328.08 428.223 328.902 429.542C330.813 432.651 328.972 436.99 330.667 440.227C331.253 441.348 332.228 442.233 332.814 443.355C334.713 446.986 331.89 451.402 328.628 453.931Z" fill="#454B69"/>
<path opacity="0.1" d="M296.071 380.726C296.977 380.009 297.758 379.148 298.384 378.177C299.012 377.201 299.261 376.03 299.085 374.883C299.333 376.334 299.238 377.822 298.808 379.23C298.378 380.637 297.624 381.924 296.606 382.987C295.007 384.625 292.006 386.23 289.668 385.67C289.999 383.797 294.587 382 296.071 380.726Z" fill="black"/>
<path opacity="0.1" d="M256.264 348.971C256.071 349.654 255.712 350.279 255.218 350.788C254.724 351.297 254.111 351.676 253.435 351.889C252.076 352.305 250.654 352.471 249.236 352.38H247.962C231.244 352.01 214.347 348.302 198.018 351.838C196.05 352.244 194.119 352.813 192.246 353.54C189.859 354.48 187.624 355.769 185.613 357.362V357.273C186.499 352.75 188.888 351.635 192.844 349.57C197.408 347.176 202.175 345.193 207.09 343.645C216.647 340.657 226.937 339.58 236.8 341.772C241.406 342.804 245.847 344.512 250.459 345.512C252.275 345.907 254.104 346.187 255.945 346.423C256.302 347.222 256.413 348.109 256.264 348.971Z" fill="black"/>
<path d="M256.264 348.06C256.073 348.745 255.714 349.371 255.22 349.881C254.726 350.392 254.112 350.771 253.435 350.985C252.077 351.401 250.654 351.565 249.236 351.469H247.962C231.244 351.099 214.347 347.391 198.018 350.927C196.051 351.334 194.12 351.901 192.246 352.622C189.746 353.619 187.414 354.994 185.333 356.7C184.844 355.357 184.358 354.013 183.874 352.667C183.288 351.061 185.148 350.704 185.505 349.264C185.74 348.29 185.339 347.181 185.135 346.143C185.083 345.888 185.049 345.631 185.033 345.372C184.919 343.072 185.74 341.746 187.626 340.504C193.22 336.809 200.044 334.273 206.428 332.368C209.822 331.295 213.328 330.615 216.877 330.342C221.897 330.049 226.911 330.979 231.798 332.158C237.806 333.642 243.751 335.605 249.077 338.746C251.695 340.287 254.238 342.205 255.633 344.913C256.195 345.86 256.417 346.97 256.264 348.06Z" fill="#A26565"/>
<path opacity="0.1" d="M202.446 309.795C200.534 315.854 195.316 321.314 188.964 321.575C188.502 321.629 188.034 321.545 187.62 321.333C186.824 320.836 186.805 319.67 187.129 318.785C187.454 317.899 188.021 317.103 188.111 316.172C188.13 315.983 188.117 315.791 188.072 315.605C191.443 310.852 194.711 306.048 196.005 300.423C196.266 299.454 196.346 298.445 196.24 297.447C196.068 296.3 195.488 295.262 195.17 294.153C194.609 292.191 194.87 290.114 195.03 288.082C195.698 279.122 194.204 270.132 190.672 261.87C189.812 259.883 188.831 257.869 188.531 255.748C188.972 254.902 189.723 254.261 190.627 253.957C192.717 253.256 194.087 254.346 194.393 256.327C194.902 259.698 194.609 263.138 195.278 266.521C195.897 269.685 196.834 272.778 198.075 275.753C199.203 278.442 200.573 281.041 201.439 283.826C202.092 286.121 202.558 288.464 202.835 290.834C203.707 297.186 204.376 303.736 202.446 309.795Z" fill="black"/>
<path opacity="0.1" d="M256.264 348.06C256.073 348.745 255.714 349.371 255.22 349.881C254.726 350.392 254.112 350.771 253.435 350.985C252.077 351.401 250.654 351.565 249.236 351.469H247.962C242.52 347.854 235.977 346.275 229.485 347.009C227.408 347.258 225.331 347.742 223.254 347.551C219.056 347.168 215.653 344.148 211.914 342.218C207.658 340.117 202.871 339.335 198.168 339.973C193.465 340.611 189.06 342.639 185.518 345.799L185.154 346.117C185.102 345.863 185.068 345.605 185.052 345.346C184.938 343.046 185.76 341.721 187.645 340.479C193.239 336.783 200.063 334.247 206.447 332.342C209.841 331.27 213.347 330.59 216.896 330.316C221.916 330.023 226.931 330.954 231.817 332.132C237.825 333.617 243.77 335.579 249.096 338.72C251.715 340.262 254.257 342.18 255.652 344.887C256.213 345.844 256.429 346.964 256.264 348.06Z" fill="black"/>
<path d="M270.554 278.27L270.465 278.499C269.038 282.201 266.413 285.329 264.731 288.935C262.609 293.503 262.087 298.626 261.615 303.646C261.208 307.947 260.806 312.273 261.131 316.586C261.947 327.214 267.139 337.293 268.528 347.716C268.87 350.124 268.958 352.56 268.789 354.986C268.675 356.521 268.394 358.171 267.375 359.306C266.356 360.44 264.374 360.886 263.278 359.796C263.769 358.86 264.266 357.929 264.763 356.993C261.851 354.731 257.468 356.356 254.066 354.941C252.568 354.304 251.371 353.157 250.115 352.132C247.251 349.802 243.95 348.069 240.406 347.034C236.862 345.999 233.147 345.683 229.479 346.104C227.402 346.359 225.325 346.843 223.248 346.652C219.049 346.264 215.647 343.25 211.907 341.32C207.652 339.219 202.866 338.437 198.163 339.074C193.46 339.711 189.055 341.737 185.511 344.894C184.619 345.722 183.421 346.691 182.326 346.168C181.902 345.909 181.56 345.536 181.338 345.091C177.165 337.962 180.236 328.768 184.696 321.824C189.155 314.879 195.062 308.476 196.897 300.448C197.161 299.48 197.241 298.471 197.132 297.473C196.96 296.326 196.38 295.287 196.062 294.179C195.501 292.216 195.762 290.139 195.922 288.107C196.59 279.147 195.096 270.157 191.564 261.896C190.544 259.519 189.334 257.111 189.334 254.531C189.334 250.466 192.246 247.095 194.654 243.827C197.425 240.068 199.751 235.908 203.261 232.818C206.587 229.88 211.404 228.084 215.52 229.575C222.514 227.883 229.713 227.188 236.901 227.51C239.386 227.625 241.954 227.886 244.133 229.09C246.465 230.365 248.14 232.633 250.434 233.99C252.11 234.99 254.04 235.462 255.862 236.162C260.897 238.132 265.051 241.854 267.56 246.643C270.108 251.581 270.745 257.258 271.306 262.788C271.854 267.955 272.364 273.37 270.554 278.27Z" fill="#4E4FEB"/>
<path opacity="0.1" d="M261.131 316.586C261.947 327.214 267.139 337.293 268.528 347.716C265.75 345.346 261.896 343.002 261.367 340.268C260.794 337.312 258.959 333.438 258.653 330.45C258.347 327.462 260.443 323.811 258.245 321.76C257.175 320.76 260.023 321.04 258.978 320.014C256.627 317.727 256.047 314.204 255.9 310.935C255.652 305.15 256.385 299.301 255.321 293.612C254.684 290.101 253.352 286.756 252.288 283.348C251.052 279.378 250.16 275.314 249.268 271.242C248.39 267.623 247.752 263.949 247.357 260.246C247.083 257.06 247.21 253.683 248.631 250.778C250.052 247.873 252.925 245.515 256.149 245.56C266.929 245.7 265.069 260.316 267.439 267.069C268.388 269.758 269.669 272.357 270.185 275.161C270.373 276.26 270.475 277.372 270.491 278.486C269.063 282.188 266.439 285.316 264.757 288.923C262.635 293.491 262.112 298.613 261.641 303.634C261.208 307.947 260.806 312.273 261.131 316.586Z" fill="black"/>
<path d="M268.14 266.904C269.089 269.592 270.37 272.192 270.886 274.995C271.746 279.691 270.414 284.679 271.86 289.228C272.237 290.199 272.552 291.193 272.803 292.204C273.052 293.65 272.765 295.128 272.765 296.6C272.765 298.97 273.511 301.264 274.173 303.538C276.414 311.266 277.897 319.193 278.601 327.207C278.706 329.362 279.046 331.498 279.614 333.579C279.882 334.284 280.111 335.002 280.302 335.732C280.473 336.706 280.514 337.698 280.423 338.682C280.251 341.804 279.901 344.938 280.251 348.048C280.602 351.157 281.736 354.311 284.074 356.394C281.984 356.846 279.773 357.299 277.735 356.63C274.868 355.693 273.147 352.807 271.688 350.182C269.841 346.831 262.82 343.811 262.093 340.045C261.526 337.095 259.691 333.222 259.386 330.227C259.08 327.233 261.169 323.595 258.971 321.543C257.907 320.543 260.755 320.817 259.704 319.798C257.359 317.51 256.78 313.987 256.633 310.712C256.385 304.933 257.111 299.085 256.053 293.395C255.416 289.885 254.085 286.54 253.021 283.125C251.785 279.162 250.893 275.097 250.001 271.019C249.12 267.4 248.482 263.727 248.089 260.023C247.815 256.837 247.936 253.454 249.364 250.549C250.791 247.643 253.664 245.292 256.882 245.331C267.617 245.528 265.77 260.15 268.14 266.904Z" fill="#4E4FEB"/>
<path opacity="0.1" d="M237.418 269.395C238.424 270.573 239.718 271.867 241.24 271.637C241.125 271.821 240.942 271.951 240.731 272.001C240.52 272.051 240.298 272.017 240.113 271.905C239.747 271.663 239.454 271.326 239.265 270.93L237.086 267.254C236.8 266.776 234.824 263.992 234.34 265.597C234.149 266.279 236.927 268.821 237.418 269.395Z" fill="black"/>
<path opacity="0.1" d="M236.245 278.563C236.183 277.362 235.676 276.227 234.824 275.377C234.059 274.683 233.165 274.144 232.193 273.791C229.804 272.81 226.975 272.02 224.382 272.147C225.325 273.523 228.351 274.345 229.868 275.122C232.017 276.231 234.143 277.378 236.245 278.563Z" fill="black"/>
<path opacity="0.1" d="M243.031 304.659C242.591 307.922 239.921 310.394 237.22 312.305C234.519 314.216 231.486 315.86 229.721 318.625C228.498 320.537 227.95 322.754 226.911 324.748C225.765 326.946 224.051 328.794 222.681 330.858C221.311 332.922 220.241 335.388 220.661 337.834C220.667 337.947 220.696 338.057 220.747 338.158C220.797 338.259 220.868 338.348 220.954 338.421C221.086 338.476 221.229 338.497 221.37 338.481C221.512 338.466 221.647 338.414 221.763 338.331C224.541 336.879 225.637 333.559 226.803 330.686C228.027 327.786 229.405 324.953 230.932 322.2C231.62 320.925 232.378 319.536 233.659 318.829C234.535 318.464 235.433 318.151 236.347 317.893C237.644 317.298 238.781 316.405 239.667 315.287C243.145 311.137 244.961 305.846 244.764 300.435C244.725 299.295 244.662 293.803 242.948 295.498C241.234 297.192 243.324 302.442 243.031 304.659Z" fill="black"/>
<path d="M247.229 179.548C252.708 181.937 257.423 187.193 257.251 193.15C257.105 199.407 251.867 205.3 253.671 211.296C254.715 214.774 257.863 217.106 260.354 219.75C269.841 229.791 269.822 247.318 260.303 257.34C256.659 261.163 251.976 263.884 248.121 267.534C234.531 280.341 233.952 302.493 241.228 319.689C235.653 320.895 229.971 321.535 224.267 321.601C221.598 321.632 218.329 321.148 217.361 318.657C216.469 316.357 217.998 313.248 216.24 311.547C215.411 310.75 214.169 310.642 213.054 310.457C205.88 309.298 199.993 303.57 197.304 296.823C194.616 290.076 194.756 282.481 196.298 275.384C197.393 270.255 199.107 264.61 196.565 260.023C193.38 254.25 184.218 251.817 184.358 245.216C184.473 239.807 190.85 237.175 194.469 233.155C201.146 225.752 197.967 214.265 197.954 204.287C197.954 195.508 201.025 186.448 207.562 180.599C217.284 171.826 236.009 174.674 247.229 179.548Z" fill="#A26565"/>
<g opacity="0.1">
<path d="M197.61 253.479C194.813 248.433 187.467 245.936 185.76 240.973C184.905 242.131 184.425 243.522 184.383 244.961C184.243 251.562 193.392 253.995 196.591 259.774C197.641 261.82 198.083 264.124 197.865 266.413C198.872 261.979 199.757 257.353 197.61 253.479Z" fill="black"/>
<path d="M254.403 203.128C255.55 199.783 257.213 196.406 257.296 192.934C257.307 192.557 257.297 192.181 257.264 191.806C255.983 195.622 254.021 199.362 254.403 203.128Z" fill="black"/>
<path d="M198.706 220.948C200.898 214.022 199.005 205.434 198.999 197.75C198.999 196.82 199.037 195.883 199.107 194.953C198.352 197.923 197.971 200.975 197.973 204.039C197.986 209.524 198.948 215.475 198.706 220.948Z" fill="black"/>
<path d="M261.367 250.823C257.723 254.645 253.04 257.366 249.185 261.017C242.304 267.496 238.768 276.371 237.883 285.782C239.526 278.773 242.846 272.319 248.166 267.305C251.989 263.673 256.703 260.966 260.348 257.111C264.683 252.387 267.2 246.277 267.452 239.87C266.351 243.965 264.262 247.725 261.367 250.823Z" fill="black"/>
<path d="M225.331 315.064C222.662 315.064 219.393 314.605 218.425 312.114C217.533 309.82 219.062 306.711 217.304 305.004C216.475 304.207 215.227 304.099 214.118 303.914C206.95 302.761 201.063 297.027 198.375 290.286C196.393 285.304 195.966 279.869 196.463 274.504C196.412 274.715 196.368 274.925 196.323 275.142C194.807 282.239 194.647 289.84 197.33 296.587C200.012 303.334 205.905 309.062 213.073 310.215C214.207 310.4 215.456 310.515 216.259 311.305C218.036 313.012 216.488 316.121 217.38 318.415C218.348 320.906 221.617 321.397 224.286 321.365C229.99 321.299 235.672 320.659 241.247 319.454C240.46 317.595 239.773 315.696 239.189 313.764C234.613 314.577 229.978 315.012 225.331 315.064Z" fill="black"/>
</g>
<path opacity="0.1" d="M246.197 287.279C247.771 288.464 249.478 283.947 248.503 282.819C248.242 283.112 245.955 287.113 246.197 287.279Z" fill="black"/>
<path opacity="0.1" d="M252.906 369.047C254.76 368.41 256.729 367.773 257.939 366.244C258.94 365.014 259.761 360.134 257.646 362.472C255.85 364.466 255.002 367.123 252.906 369.047Z" fill="black"/>
<path opacity="0.1" d="M271.784 363.931C271.561 365.435 271.147 366.996 270.083 368.079C269.885 368.283 269.446 368.41 269.388 368.136C270.577 367.503 271.681 366.724 272.676 365.817C274.829 363.683 275.122 358.426 271.841 357.031C271.809 359.337 272.134 361.612 271.784 363.931Z" fill="black"/>
<path d="M294.446 354.457C294.446 354.457 276.365 347.353 269.828 348.086C263.291 348.819 277.231 359.121 277.231 359.121L285.565 364.74C285.565 364.74 290.662 362.829 291 362.682C291.337 362.536 294.446 354.457 294.446 354.457Z" fill="#454B69"/>
<path d="M170.035 278.244C170.035 278.244 183.619 270.37 201.548 280.156C219.476 289.942 222.464 347.532 222.464 347.532C222.464 347.532 215.131 406.211 243.406 393.162C243.406 393.162 295.013 377.139 300.181 380.668C300.181 380.668 305.074 380.668 295.294 382.841C285.514 385.013 247.752 396.966 247.752 396.966C247.752 396.966 235.538 401.235 230.365 396.966C225.191 392.697 210.531 397.514 208.626 368.168C207.365 349.675 205.098 331.265 201.834 313.019L196.795 298.078L170.035 278.244Z" fill="#565661"/>
<path d="M168.404 368.983C168.404 368.983 174.381 309.489 164.582 288.024C156.057 269.318 189.022 278.066 197.623 280.614C198.954 281.012 200.115 281.842 200.923 282.972C206.02 290.139 224.306 318.867 218.915 357.305C218.915 357.305 216.743 391.538 230.326 396.966L188.474 383.484C185.078 382.389 181.631 381.477 178.152 380.687C173.718 379.681 166.493 376.82 168.404 368.983Z" fill="white"/>
<path d="M424.897 262.546C424.897 262.546 421.973 276.167 434.989 277.779L435.799 276.269C435.799 276.269 425.707 266.783 424.897 262.546Z" fill="#4E4FEB"/>
<path d="M439.933 276.161L436.907 276.798L436.608 276.868C436.608 276.868 428.529 270.312 428.631 255.677C429.704 257.831 430.984 259.875 432.454 261.781C435.69 266.043 439.328 271.669 439.933 276.161Z" fill="#4E4FEB"/>
<path d="M440.959 277.569C440.72 277.723 440.45 277.822 440.167 277.859C439.885 277.895 439.599 277.868 439.328 277.779C431.555 275.963 434.187 250.644 434.187 250.644C434.613 250.842 435.085 254.059 436.869 258.22C440.01 265.527 443.463 275.734 440.959 277.569Z" fill="#4E4FEB"/>
<path d="M458.193 262.546C458.193 262.546 458.697 276.167 445.68 277.779L444.878 276.269C444.878 276.269 457.384 266.783 458.193 262.546Z" fill="#4E4FEB"/>
<path d="M454.46 255.684C454.562 270.319 444.1 276.875 444.1 276.875L443.801 276.804L440.774 276.167C441.373 271.676 445.018 266.024 448.21 261.794C450.011 259.488 452.113 257.433 454.46 255.684Z" fill="#4E4FEB"/>
<path d="M443.718 276.237C443.249 276.806 442.656 277.259 441.985 277.563C441.781 277.655 441.567 277.725 441.348 277.773C439.436 278.219 438.799 276.843 438.876 274.498C439.054 270.325 441.679 263.094 444.03 257.684C445.725 253.785 448.49 250.829 448.91 250.638C448.91 250.644 448.796 270.357 443.718 276.237Z" fill="#4E4FEB"/>
<path d="M441.552 241.763C441.552 241.763 432.874 272.536 440.341 277.174C447.808 281.812 443.463 244.483 441.552 241.763Z" fill="#4E4FEB"/>
<path opacity="0.1" d="M424.897 262.546C424.897 262.546 421.973 276.167 434.989 277.779L435.799 276.269C435.799 276.269 425.707 266.783 424.897 262.546Z" fill="black"/>
<path opacity="0.1" d="M439.933 276.161L436.907 276.798L436.608 276.868C436.608 276.868 428.529 270.312 428.631 255.677C429.704 257.831 430.984 259.875 432.454 261.781C435.69 266.043 439.328 271.669 439.933 276.161Z" fill="black"/>
<path opacity="0.1" d="M440.959 277.569C440.72 277.723 440.45 277.822 440.167 277.859C439.885 277.895 439.599 277.868 439.328 277.779C431.555 275.963 434.187 250.644 434.187 250.644C434.613 250.842 435.085 254.059 436.869 258.22C440.01 265.527 443.463 275.734 440.959 277.569Z" fill="black"/>
<path opacity="0.1" d="M458.193 262.546C458.193 262.546 458.697 276.167 445.68 277.779L444.878 276.269C444.878 276.269 457.384 266.783 458.193 262.546Z" fill="black"/>
<path opacity="0.1" d="M454.46 255.684C454.562 270.319 444.1 276.875 444.1 276.875L443.801 276.804L440.774 276.167C441.373 271.676 445.018 266.024 448.21 261.794C450.011 259.488 452.113 257.433 454.46 255.684Z" fill="black"/>
<path opacity="0.1" d="M443.718 276.237C443.249 276.806 442.656 277.259 441.985 277.563C441.781 277.655 441.567 277.725 441.348 277.773C439.436 278.219 438.799 276.843 438.876 274.498C439.054 270.325 441.679 263.094 444.03 257.684C445.725 253.785 448.49 250.829 448.91 250.638C448.91 250.644 448.796 270.357 443.718 276.237Z" fill="black"/>
<path opacity="0.1" d="M441.552 241.763C441.552 241.763 432.874 272.536 440.341 277.174C447.808 281.812 443.463 244.483 441.552 241.763Z" fill="black"/>
<path d="M424.897 262.546C424.897 262.546 423.183 276.167 436.2 277.779L437.009 276.269C437.009 276.269 425.706 266.783 424.897 262.546Z" fill="#4E4FEB"/>
<path d="M441.144 276.161L438.118 276.798L437.818 276.868C437.818 276.868 428.529 270.312 428.631 255.677C428.631 255.677 431.014 258.226 433.696 261.781C436.901 266.043 440.539 271.669 441.144 276.161Z" fill="#4E4FEB"/>
<path opacity="0.1" d="M441.144 276.161L438.118 276.798C435.251 274.281 434.11 267.706 433.696 261.781C436.901 266.043 440.539 271.669 441.144 276.161Z" fill="black"/>
<path d="M442.189 277.569C441.95 277.723 441.679 277.822 441.397 277.859C441.115 277.895 440.828 277.868 440.558 277.779C432.785 275.963 434.187 250.644 434.187 250.644C434.613 250.842 436.295 254.059 438.079 258.22C441.22 265.527 444.661 275.734 442.189 277.569Z" fill="#4E4FEB"/>
<path d="M458.193 262.546C458.193 262.546 459.907 276.167 446.891 277.779L446.088 276.269C446.088 276.269 457.384 266.783 458.193 262.546Z" fill="#4E4FEB"/>
<path d="M454.46 255.684C454.562 270.338 445.279 276.875 445.279 276.875L444.979 276.804L441.953 276.167C442.552 271.676 446.196 266.024 449.388 261.794C452.083 258.232 454.46 255.684 454.46 255.684Z" fill="#4E4FEB"/>
<path opacity="0.1" d="M449.388 261.788C449 267.311 447.993 273.396 445.566 276.244C445.394 276.443 445.209 276.63 445.011 276.805L441.985 276.167C442.552 271.669 446.196 266.043 449.388 261.788Z" fill="black"/>
<path d="M444.929 276.237C444.46 276.806 443.867 277.259 443.196 277.563C442.991 277.655 442.778 277.725 442.558 277.773C440.647 278.219 439.978 276.843 440.086 274.498C440.265 270.325 442.89 263.094 445.241 257.684C446.935 253.785 448.503 250.829 448.911 250.638C448.911 250.644 450.006 270.357 444.929 276.237Z" fill="#4E4FEB"/>
<path opacity="0.1" d="M442.189 277.569C441.748 277.568 441.318 277.43 440.959 277.174C437.302 274.899 437.232 266.343 438.099 258.22C441.22 265.527 444.661 275.734 442.189 277.569Z" fill="black"/>
<path opacity="0.1" d="M444.928 276.237C444.508 277.142 443.941 277.626 443.196 277.563C442.824 277.511 442.469 277.376 442.157 277.168C441.207 276.515 440.486 275.581 440.093 274.498C440.271 270.325 442.896 263.094 445.247 257.684C446.082 265.202 446.362 273.16 444.928 276.237Z" fill="black"/>
<path d="M441.552 241.763C441.552 241.763 434.085 272.536 441.552 277.174C449.019 281.812 443.463 244.483 441.552 241.763Z" fill="#4E4FEB"/>
<path d="M453.256 278.69L452.733 281.411L450.835 291.401H432.766L430.867 281.411L430.345 278.69H453.256Z" fill="#565661"/>
<path opacity="0.1" d="M453.256 278.69L452.733 281.411H430.867L430.345 278.69H453.256Z" fill="black"/>
<path d="M457.085 275.664H426.012V280.812H457.085V275.664Z" fill="#565661"/>
<path d="M352.183 285.546L335.152 286.916L310.884 285.336L311.305 285.297L333.782 283.131C338.93 281.22 335.362 270.102 335.362 270.102L352.565 270.981L353.935 271.051C360.057 285.336 352.183 285.546 352.183 285.546Z" fill="#D1D9EC"/>
<path opacity="0.1" d="M352.183 285.546L335.152 286.916L310.884 285.336L311.305 285.297L335.834 286.177L352.272 284.393C356.935 283.163 354.266 275.065 352.584 270.981L353.954 271.051C360.057 285.336 352.183 285.546 352.183 285.546Z" fill="black"/>
<path d="M381.981 184.371L376.775 259.035L376.094 268.84C376.018 269.92 375.533 270.93 374.739 271.665C373.945 272.4 372.901 272.805 371.819 272.797H370.239L291.872 272.319C291.567 272.317 291.265 272.251 290.986 272.126C290.707 272.001 290.458 271.819 290.253 271.591C290.049 271.364 289.894 271.097 289.799 270.806C289.703 270.516 289.67 270.209 289.7 269.904L290.375 263.285L295.886 209.091C295.974 208.234 296.304 207.419 296.838 206.742C297.371 206.065 298.087 205.554 298.9 205.268L373.59 179.407C376.138 178.528 378.687 178.84 380.337 180.185C380.934 180.693 381.397 181.341 381.684 182.072C381.97 182.802 382.072 183.592 381.981 184.371Z" fill="#4C4C56"/>
<path d="M376.775 259.035L376.094 268.84C376.018 269.92 375.533 270.93 374.739 271.665C373.945 272.4 372.901 272.805 371.819 272.797H370.239L291.872 272.319C291.567 272.317 291.265 272.251 290.986 272.126C290.707 272.001 290.458 271.819 290.253 271.591C290.049 271.364 289.894 271.097 289.799 270.806C289.703 270.516 289.67 270.209 289.7 269.904L290.375 263.285L376.775 259.035Z" fill="#DFE6F5"/>
<path d="M324.238 269.267C324.819 269.267 325.29 268.326 325.29 267.165C325.29 266.004 324.819 265.062 324.238 265.062C323.658 265.062 323.187 266.004 323.187 267.165C323.187 268.326 323.658 269.267 324.238 269.267Z" fill="white"/>
<path d="M362.599 288.005C362.599 288.005 384.032 279.914 389.811 285.801C389.811 285.801 390.754 287.585 386.867 288.005L371.162 289.279C371.162 289.279 364.702 289.897 362.599 288.005Z" fill="#D1D9EC"/>
<path d="M363.186 285.903C367.397 284.182 380.069 279.729 388.18 284.628C388.18 284.628 379.203 283.634 374.278 286.482C369.353 289.33 362.612 287.98 362.612 287.98L362.517 287.801C362.426 287.634 362.372 287.451 362.357 287.262C362.342 287.072 362.367 286.882 362.43 286.703C362.493 286.525 362.593 286.361 362.723 286.223C362.853 286.085 363.011 285.976 363.186 285.903Z" fill="#DFE6F5"/>
<path d="M381.981 184.371L376.094 268.853C376.018 269.933 375.533 270.942 374.739 271.677C373.945 272.412 372.901 272.817 371.819 272.81H370.239C371.324 271.773 372.248 270.579 372.978 269.267C372.978 269.267 378.757 184.39 379.177 182.287C379.365 181.5 379.769 180.78 380.343 180.21C380.936 180.717 381.395 181.361 381.68 182.087C381.966 182.812 382.069 183.596 381.981 184.371Z" fill="#DFE6F5"/>
<path opacity="0.1" d="M381.981 184.371L376.094 268.853C376.018 269.933 375.533 270.942 374.739 271.677C373.945 272.412 372.901 272.817 371.819 272.81H370.239C371.324 271.773 372.248 270.579 372.978 269.267C372.978 269.267 378.757 184.39 379.177 182.287C379.365 181.5 379.769 180.78 380.343 180.21C380.936 180.717 381.395 181.361 381.68 182.087C381.966 182.812 382.069 183.596 381.981 184.371Z" fill="black"/>
<path opacity="0.1" d="M94.9122 475.115C129.199 475.115 156.993 470.651 156.993 465.144C156.993 459.638 129.199 455.173 94.9122 455.173C60.6257 455.173 32.831 459.638 32.831 465.144C32.831 470.651 60.6257 475.115 94.9122 475.115Z" fill="#4E4FEB"/>
<path d="M96.9064 274.129H92.9117V364.071H96.9064V274.129Z" fill="#535461"/>
<path d="M122.015 363.797L121.767 367.849L121.41 373.583L121.264 375.966L120.913 381.7L120.76 384.083L120.404 389.817L116.377 454.849C116.202 457.647 114.967 460.273 112.924 462.193C110.881 464.112 108.184 465.182 105.38 465.183H84.4379C81.6358 465.181 78.9395 464.112 76.8986 462.192C74.8577 460.271 73.6258 457.645 73.4539 454.849L69.4146 389.773L69.0641 384.039L68.9176 381.656L68.5544 375.922L68.4079 373.539L68.0575 367.805L67.8026 363.753C67.7586 362.976 67.873 362.198 68.1389 361.467C68.4049 360.736 68.8168 360.067 69.3496 359.5C69.8825 358.933 70.5251 358.481 71.2383 358.17C71.9516 357.86 72.7206 357.698 73.4985 357.694H116.326C117.107 357.698 117.88 357.862 118.595 358.176C119.311 358.49 119.955 358.946 120.488 359.518C121.02 360.089 121.431 360.764 121.694 361.5C121.956 362.236 122.066 363.017 122.015 363.797Z" fill="#565661"/>
<path d="M121.767 367.849L121.41 373.564H68.4143L68.0575 367.849H121.767Z" fill="#9D9CB5"/>
<path d="M121.264 375.954L120.913 381.675H68.9176L68.5608 375.954H121.264Z" fill="#9D9CB5"/>
<path d="M120.76 384.058L120.404 389.773H69.4146L69.0641 384.058H120.76Z" fill="#9D9CB5"/>
<path d="M61.9538 307.839C85.2216 324.672 94.9122 350.997 94.9122 350.997C94.9122 350.997 66.8788 350.035 43.6047 333.203C20.3306 316.37 10.6527 290.05 10.6527 290.05C10.6527 290.05 38.6925 291.012 61.9538 307.839Z" fill="#4E4FEB"/>
<path d="M10.6527 290.05C10.6527 290.05 39.7501 306.182 49.084 319.562C58.4178 332.941 94.9059 350.985 94.9059 350.985" stroke="#535461" stroke-width="2" stroke-miterlimit="10"/>
<path d="M76.9708 273.931C89.6368 283.087 94.9122 297.422 94.9122 297.422C94.9122 297.422 79.6213 296.893 66.9871 287.738C54.353 278.582 49.084 264.247 49.084 264.247C49.084 264.247 64.3112 264.769 76.9708 273.931Z" fill="#4E4FEB"/>
<path d="M49.084 264.247C49.084 264.247 64.9228 273.039 70.0007 280.315C75.0786 287.591 94.9441 297.422 94.9441 297.422" stroke="#535461" stroke-width="2" stroke-miterlimit="10"/>
<path d="M113.312 296.689C98.7796 312.675 95.6895 333.579 95.6895 333.579C95.6895 333.579 116.198 328.545 130.731 312.553C145.264 296.562 148.354 275.677 148.354 275.677C148.354 275.677 127.858 280.697 113.312 296.689Z" fill="#4E4FEB"/>
<path d="M148.367 275.67C148.367 275.67 129.419 292.057 124.602 303.347C119.786 314.637 95.6895 333.579 95.6895 333.579" stroke="#535461" stroke-width="2" stroke-miterlimit="10"/>
<g opacity="0.87">
<path d="M521.74 100.047C519.293 97.5563 516.707 94.7848 516.223 91.1787C515.847 88.3881 516.86 85.5656 518.236 83.1828C519.612 80.7999 521.421 78.7229 522.944 76.4293C524.856 73.4794 526.308 70.16 528.474 67.4076C531.819 63.158 536.693 60.5968 541.701 59.2907C546.709 57.9846 551.895 57.8253 557.056 57.6724C561.184 57.5513 565.383 57.443 569.371 58.5962C572.289 59.4372 575.01 60.9344 577.692 62.4189C581.458 64.5151 585.268 66.6813 588.307 69.8797C591.302 73.071 593.388 77.0069 594.347 81.2778C595.43 85.9734 595.118 91.1659 592.888 95.3582C591.892 97.0954 590.734 98.7338 589.428 100.251L585.503 105.1C584.685 106.212 583.711 107.202 582.611 108.037C581.207 108.877 579.653 109.435 578.036 109.681C567.043 112.014 555.838 113.205 544.6 113.236C540.542 113.236 537.26 111.006 533.52 109.413C528.959 107.4 525.276 103.641 521.74 100.047Z" fill="#454B69"/>
<path opacity="0.1" d="M525.518 100.047C523.199 97.5563 520.746 94.7848 520.281 91.1787C519.931 88.3881 520.867 85.5656 522.192 83.1828C523.518 80.7999 525.232 78.7229 526.652 76.4293C528.481 73.4794 529.838 70.16 531.896 67.4076C535.081 63.158 539.694 60.5968 544.447 59.2907C549.2 57.9846 554.125 57.8253 559.005 57.6724C562.924 57.5513 566.899 57.443 570.684 58.5962C573.455 59.4372 576.029 60.9344 578.578 62.4189C582.146 64.5151 585.765 66.6813 588.644 69.8797C591.505 73.1072 593.481 77.0211 594.378 81.2396C595.404 85.9352 595.105 91.1277 592.996 95.32C592.056 97.0489 590.957 98.6869 589.715 100.213L585.988 105.062C585.222 106.17 584.299 107.162 583.248 108.005C581.927 108.84 580.452 109.399 578.909 109.649C568.5 111.981 557.867 113.173 547.2 113.204C543.377 113.204 540.242 110.974 536.693 109.381C532.367 107.4 528.869 103.641 525.518 100.047Z" fill="black"/>
<path d="M525.735 60.5904C528.581 57.5693 531.588 54.7044 534.744 52.0084C539.414 48.0072 545.027 44.1208 551.685 43.8596C555.699 43.8133 559.654 44.824 563.153 46.7903C566.587 48.6316 569.524 51.0336 572.455 53.4164L584.032 62.8841C585 63.6741 586.013 64.5342 586.268 65.6428C586.326 65.9372 586.319 66.2409 586.246 66.532C586.172 66.8231 586.035 67.0943 585.845 67.3259C585.654 67.5576 585.414 67.744 585.142 67.8716C584.87 67.9992 584.574 68.0649 584.274 68.0639C583.677 67.9837 583.108 67.7656 582.611 67.4267C574.924 63.2864 566.375 61.0041 557.648 60.7629C548.92 60.5217 540.258 62.3283 532.355 66.0378C530.399 66.968 526.62 70.332 524.626 68.9686C521.778 66.9999 524.002 62.4253 525.735 60.5904Z" fill="#454B69"/>
<path opacity="0.1" d="M572.659 97.5945C565.013 95.766 556.788 95.8233 548.729 95.8998C543.268 95.9507 537.579 96.0399 532.718 97.7729C529.386 98.9643 526.404 101.341 527.035 103.908C527.665 106.476 531.303 107.935 534.578 109.095C541.586 111.579 549.117 114.128 556.877 113.408C564.918 112.669 591.212 102.048 572.659 97.5945Z" fill="black"/>
<path d="M531.641 99.3785C528.5 99.3785 527.684 103.762 528.207 106.852C528.729 109.942 529.035 114.071 526.136 115.268C525.142 115.57 524.1 115.678 523.065 115.587C516.057 115.619 509.813 119.792 504.054 123.799C503.066 124.494 502.027 125.239 501.556 126.348C501.212 127.157 501.18 128.113 500.613 128.775C500.01 129.324 499.259 129.685 498.453 129.814C495.127 130.854 492.22 132.931 490.157 135.74C488.094 138.549 486.982 141.944 486.985 145.43C479.722 147.883 474.752 155.834 475.74 163.435C473.148 164.279 470.919 165.977 469.415 168.25C467.911 170.523 467.221 173.239 467.457 175.954C461.245 178.789 458.416 187.289 461.723 193.278C462.876 195.38 464.565 198.203 462.768 199.789C464.979 202.784 467.387 205.931 470.885 207.199C474.383 208.467 479.168 206.778 479.741 203.102C481.412 204.008 483.299 204.439 485.198 204.35C487.097 204.26 488.935 203.653 490.514 202.594C492.092 201.535 493.351 200.064 494.154 198.342C494.957 196.619 495.274 194.709 495.07 192.819C500.396 191.984 503.99 185.543 501.964 180.554L507.284 178.197C505.863 179.947 505.009 182.089 504.836 184.337C504.663 186.585 505.179 188.833 506.315 190.78C506.863 191.49 507.258 192.306 507.475 193.176C507.679 194.711 506.468 196.024 505.563 197.311C504.436 199.041 503.819 201.054 503.786 203.119C503.752 205.184 504.302 207.217 505.372 208.983C506.009 210.028 506.889 211.034 506.946 212.264C507.01 213.729 505.92 214.953 505.207 216.233C502.021 221.935 506.424 228.74 510.578 233.754C505.341 238.947 507.558 248.561 513.368 253.104C519.179 257.646 527.124 258.245 534.483 257.735C541.841 257.226 549.245 255.824 556.527 256.977C560.35 257.614 564.007 258.927 567.83 259.43C574.392 260.297 581.043 258.691 587.275 256.461C590.651 255.251 594.283 253.562 595.704 250.275C597.309 246.579 595.564 242.362 595.487 238.335C595.372 232.295 599.049 226.809 599.819 220.814C600.291 217.144 599.66 213.443 599.182 209.779C597.832 199.408 597.723 188.913 598.857 178.516L600.769 181.421C600.988 181.452 601.21 181.436 601.422 181.372C601.634 181.309 601.829 181.2 601.994 181.053C602.159 180.906 602.29 180.725 602.378 180.522C602.465 180.319 602.508 180.1 602.502 179.879C602.878 183.842 600.042 189.06 603.457 191.111C604.464 191.749 605.707 191.749 606.847 192.01C609.008 192.641 610.859 194.047 612.046 195.96C613.83 198.623 614.594 201.911 616.671 204.383C618.748 206.855 622.985 208.053 624.999 205.549C631.205 205.644 637.221 203.407 641.857 199.279C641.33 198.646 640.941 197.91 640.714 197.118C640.487 196.326 640.427 195.496 640.538 194.679C644.418 194.73 646.049 189.327 644.616 185.715C643.182 182.103 640.06 179.344 638.652 175.738C637.378 172.469 637.524 168.57 635.326 165.83C634.288 164.524 632.778 163.626 631.816 162.275C630.612 160.625 630.299 158.516 629.726 156.541C628.151 151.222 624.565 146.727 619.73 144.009C621.138 137.44 616.544 130.833 610.007 129.189C609.258 129.056 608.525 128.842 607.822 128.552C605.445 127.367 604.999 124.233 603.572 121.99C601.298 118.409 596.653 117.333 592.48 116.568L579.878 114.236C579.14 114.169 578.436 113.898 577.845 113.453C577.346 112.914 577.045 112.222 576.991 111.49C576.469 107.839 578.266 104.189 577.985 100.513C577.89 99.4103 577.399 98.1106 576.31 97.9258C575.72 97.8919 575.133 98.0315 574.621 98.3272C570.21 100.206 565.644 101.698 560.974 102.787C557.552 103.745 554.044 104.36 550.5 104.622C543.708 104.953 537.12 103.411 531.641 99.3785Z" fill="#454B69"/>
<path d="M580.897 66.0251C582.726 64.7508 584.605 63.3746 585.873 61.2721C587.141 59.1696 587.631 56.0987 586.51 53.9006C588.02 56.5001 589.371 59.4818 589.313 62.7056C589.256 65.9295 587.287 69.2616 584.72 69.2107C586.631 69.0514 588.695 68.8157 590.142 67.2356C591.588 65.6555 591.849 62.2278 590.142 61.1001C590.931 61.9929 591.515 63.0475 591.852 64.19C592.19 65.3325 592.274 66.5352 592.098 67.7134C591.747 70.1409 590.295 72.2689 588.434 73.0653C590.065 68.8093 594.805 67.0253 598.055 69.4655C595.02 70.8242 592.555 73.1991 591.085 76.1808C593.053 74.709 595.793 73.3392 597.398 75.3844C594.296 76.0215 591.435 78.3406 589.753 81.6728C592.958 81.259 596.196 81.1757 599.418 81.4243C595.846 82.3075 592.706 84.4355 590.562 87.426C592.918 88.0951 595.225 88.9231 597.469 89.9044C595.636 90.8573 593.58 91.2976 591.518 91.1787C595.341 93.9438 598.067 98.9388 598.743 104.399C597.422 103.095 595.941 101.964 594.334 101.035C593.06 100.315 591.569 99.7607 590.365 100.602C589.16 101.443 589.059 104.259 590.416 104.596L584.885 104.195C585.823 104.859 586.612 105.713 587.2 106.701C587.788 107.688 588.163 108.788 588.3 109.929C587.231 109.846 586.197 109.512 585.28 108.954C587.662 111.113 589.472 113.827 590.549 116.855C588.281 115.084 585.835 113.249 583.165 113.319C581.209 113.37 579.342 114.446 577.431 114.778C573.991 115.37 570.346 113.376 568.346 109.808C570.681 109.454 573.064 109.571 575.354 110.152C574.972 107.613 574.303 105.125 573.36 102.736C574.67 103.596 575.807 104.693 576.711 105.973C577.086 102.621 577.018 99.2338 576.507 95.8998L579.412 98.9133C579.131 96.672 578.617 94.4663 577.877 92.3319C579.309 95.0432 581.222 97.4718 583.522 99.4995L579.234 92.0834L586.313 97.2059C587.045 96.6133 586.491 95.1798 585.873 94.4089C583.975 92.0287 581.761 89.9194 579.291 88.1396C581.237 88.4378 583.132 89.0016 584.924 89.8152C584.153 85.8268 580.801 82.9024 577.552 83.3867C579.945 81.9563 582.614 81.0486 585.382 80.7235C582.611 78.5636 579.011 76.4102 576.303 78.7484C578.893 78.1347 581.396 77.1972 583.751 75.9578C583.067 75.1162 582.121 74.5271 581.064 74.2836C580.007 74.0401 578.899 74.1562 577.915 74.6135C576.004 75.5755 574.551 77.9902 574.386 80.5961C574.29 76.8498 576.533 73.2118 579.483 72.3772C578.342 71.7974 577.157 71.2049 575.927 71.3004C575.248 71.3734 574.613 71.6747 574.127 72.1549C573.641 72.6352 573.333 73.2661 573.251 73.9445C573.596 71.6052 574.381 69.3525 575.564 67.3057C573.946 66.4583 571.99 67.6879 571.104 69.5802C570.219 71.4725 570.187 73.8171 570.467 75.9897C570.744 71.308 570.531 66.6102 569.83 61.973C569.088 65.6271 568.856 69.3666 569.142 73.0844" fill="#4E4FEB"/>
<path opacity="0.2" d="M554.813 104.622H550.493V256.748H554.813V104.622Z" fill="white"/>
<path opacity="0.1" d="M591.136 493.796C647.097 493.796 692.464 483.844 692.464 471.567C692.464 459.29 647.097 449.337 591.136 449.337C535.174 449.337 489.807 459.29 489.807 471.567C489.807 483.844 535.174 493.796 591.136 493.796Z" fill="#4E4FEB"/>
<path d="M608.879 58.284H601.419V489.483H608.879V58.284Z" fill="#565661"/>
<path d="M605.152 89.8089C623.685 89.8089 638.709 87.3814 638.709 84.3869C638.709 81.3925 623.685 78.965 605.152 78.965C586.619 78.965 571.595 81.3925 571.595 84.3869C571.595 87.3814 586.619 89.8089 605.152 89.8089Z" stroke="#565661" stroke-width="9" stroke-miterlimit="10"/>
<path d="M560.91 55.984C558.542 56.5718 556.37 57.7744 554.615 59.4703C552.86 61.1663 551.584 63.2955 550.915 65.6427C550.247 67.99 550.21 70.4721 550.808 72.8381C551.407 75.2042 552.619 77.3705 554.323 79.1179C558.228 83.1254 564.07 84.387 569.518 85.6612C579.973 88.1078 591.18 91.9432 596.838 101.06C598.628 103.993 599.737 107.29 600.082 110.709C600.427 114.128 600 117.58 598.832 120.811C598.3 122.418 597.418 123.886 596.252 125.112C594.779 126.396 593.037 127.334 591.155 127.858C582.685 130.664 573.576 130.907 564.969 128.559" stroke="#565661" stroke-width="9" stroke-miterlimit="10"/>
<path d="M648.203 55.984C650.57 56.5735 652.74 57.777 654.494 59.4731C656.248 61.1693 657.523 63.298 658.191 65.6445C658.86 67.991 658.897 70.4722 658.3 72.8378C657.703 75.2034 656.492 77.3697 654.79 79.1179C650.885 83.1254 645.042 84.387 639.595 85.6612C629.14 88.1078 617.933 91.9432 612.275 101.06C610.485 103.993 609.376 107.29 609.031 110.709C608.686 114.128 609.113 117.58 610.281 120.811C610.804 122.415 611.674 123.883 612.83 125.112C614.303 126.396 616.044 127.334 617.927 127.858C626.396 130.664 635.505 130.907 644.112 128.559" stroke="#565661" stroke-width="9" stroke-miterlimit="10"/>
<path d="M605.152 344.728C622.376 344.728 636.339 340.783 636.339 335.917C636.339 331.05 622.376 327.105 605.152 327.105C587.928 327.105 573.965 331.05 573.965 335.917C573.965 340.783 587.928 344.728 605.152 344.728Z" stroke="#565661" stroke-width="9" stroke-miterlimit="10"/>
<path d="M605.152 455.46C622.376 455.46 636.339 451.515 636.339 446.649C636.339 441.782 622.376 437.837 605.152 437.837C587.928 437.837 573.965 441.782 573.965 446.649C573.965 451.515 587.928 455.46 605.152 455.46Z" stroke="#565661" stroke-width="9" stroke-miterlimit="10"/>
<path d="M574.914 338.599C587.104 350.146 595.558 365.078 599.189 381.471C599.889 384.472 600.316 387.53 600.463 390.607C600.705 397.616 598.928 404.573 596.64 411.218C592.327 423.795 585.917 436.015 575.864 444.706C566.842 452.504 555.476 456.983 544.167 460.767" stroke="#565661" stroke-width="9" stroke-miterlimit="10"/>
<path d="M635.384 338.599C623.194 350.146 614.74 365.078 611.109 381.471C610.412 384.472 609.985 387.53 609.835 390.607C609.593 397.616 611.371 404.573 613.658 411.218C617.965 423.795 624.374 436.015 634.434 444.706C643.45 452.504 654.822 456.983 666.125 460.767" stroke="#565661" stroke-width="9" stroke-miterlimit="10"/>
<path d="M552.188 52.5499H535.661V59.3098H552.188V52.5499Z" fill="#454B69"/>
<path d="M571.684 73.1162L568.339 63.7824C568.036 62.6896 567.487 61.6806 566.734 60.8325C565.944 60.0998 564.663 59.9278 563.969 60.7879C565.121 62.343 566.036 64.0608 566.683 65.8849C567.263 67.7963 567.263 70.0134 566.262 71.619C565.726 66.2694 563.431 61.2483 559.738 57.3411C561.071 60.0731 562.166 62.9144 563.013 65.8339L558.457 60.4757C557.478 64.5338 557.5 68.7691 558.521 72.8168C556.02 69.7183 554.627 65.8719 554.565 61.8901C554.53 63.5798 554.186 65.2488 553.552 66.8151C552.291 65.3494 551.611 63.4727 551.64 61.5397C550.467 63.3305 549.697 65.3542 549.381 67.4715C549.065 69.5888 549.212 71.7493 549.812 73.8043C547.627 70.24 546.443 66.153 546.384 61.973C545.008 66.171 544.626 70.6313 545.269 75.0021C542.662 72.1122 541.064 68.4547 540.714 64.5788C540.802 68.5543 541.445 72.498 542.625 76.2955C540.516 75.7029 539.337 73.2054 538.216 71.0583C537.095 68.9112 535.324 66.6558 533.176 67.0445C535.169 69.2307 536.373 72.0206 536.598 74.9703C535.559 74.8301 534.776 73.7597 533.756 73.5112C532.316 73.1672 530.864 74.8874 531.093 76.5567C531.322 78.226 533.036 79.3473 534.432 78.8312C533.448 78.4269 532.367 78.3231 531.325 78.5329C530.283 78.7427 529.327 79.2567 528.576 80.0099C527.766 80.861 527.166 81.8891 526.822 83.0126C526.478 84.1362 526.4 85.3243 526.595 86.4831C527.423 84.0748 529.927 82.6157 532.1 83.2975C528.768 83.7817 525.958 87.254 525.728 91.115C526.544 90.5479 526.933 89.4457 527.602 88.6684C528.271 87.8911 529.615 87.6108 530.016 88.6047C530.152 89.0943 530.139 89.6135 529.978 90.0956L528.277 97.5244L536.929 93.7463C536.38 97.2611 535.291 100.67 533.699 103.851L538.592 102.246C536.534 104.392 535.149 107.094 534.61 110.018C535.113 107.406 538.484 105.285 540.586 105.406C540.994 109.477 538.911 112.452 535.489 112.694C530.602 113.045 526.213 112.197 521.371 113.911C522.326 112.548 523.636 111.471 525.158 110.797C526.681 110.124 528.358 109.879 530.01 110.088C527.544 106.642 523.129 105.253 519.485 106.788C520.161 105.796 521.075 104.989 522.143 104.442C523.212 103.894 524.401 103.623 525.601 103.654C523.932 100.876 520.383 99.8881 517.796 101.481C518.814 99.5505 520.465 98.0295 522.473 97.174C520.625 95.543 518.013 95.4155 515.808 96.1801C513.604 96.9446 511.623 98.4865 509.711 100.003C509.382 99.0567 509.303 98.0417 509.482 97.056C509.661 96.0704 510.091 95.1476 510.731 94.377C511.327 93.6964 512.134 93.2351 513.023 93.0665C513.912 92.8979 514.832 93.0318 515.636 93.4468C514.846 91.0895 512.585 89.5158 510.412 89.8025C511.059 88.8707 511.995 88.1783 513.076 87.8327C514.156 87.4871 515.321 87.5077 516.388 87.8911C516.43 86.4109 516.139 84.9401 515.537 83.5872C514.935 82.2342 514.037 81.0336 512.91 80.0736C514.549 80.5446 515.991 81.535 517.019 82.8961C517.261 81.808 517.279 80.6819 517.072 79.5866C516.865 78.4912 516.437 77.4495 515.815 76.5248C514.597 74.8172 513.118 73.3122 511.431 72.065C514.784 71.0496 518.365 71.0674 521.708 72.1159L518.777 61.6926L524.684 69.1215C524.015 65.3376 523.818 61.4855 524.097 57.6533C524.863 60.377 526.031 62.9711 527.563 65.3497C527.122 61.8554 526.871 58.3397 526.812 54.8181C526.812 53.9197 526.875 52.843 527.557 52.4034C528.239 51.9638 528.997 52.4034 529.468 53.0405C529.862 53.7422 530.144 54.501 530.303 55.2895C530.992 57.7659 532.355 60.0023 534.24 61.75C534.271 59.9286 534.684 58.134 535.453 56.4823C536.221 54.8306 537.327 53.3585 538.7 52.1613C538.743 54.998 539.125 57.8195 539.841 60.5649C537.929 60.4439 536.865 57.6851 537.432 55.5954C537.999 53.5056 539.63 52.0593 541.255 50.9252C542.88 49.7912 544.632 48.759 545.779 47.0197C545.392 51.0977 545.667 55.2115 546.594 59.2015C547.193 56.4491 547.155 53.5374 547.926 50.8424C548.697 48.1474 550.659 45.567 553.112 45.6499C552.095 47.0844 551.302 48.6657 550.761 50.3391C550.283 52.0657 550.36 54.1045 551.347 55.5189C551.698 52.9704 552.061 50.3518 553.048 48.02C554.036 45.6881 555.743 43.6238 557.935 43.0377C556.686 47.3762 557.014 52.0166 558.859 56.1369C558.859 52.4288 559.891 48.2493 562.764 46.5801C562.105 47.6643 561.691 48.8804 561.554 50.1421C561.416 51.4039 561.557 52.6805 561.968 53.8815C561.887 50.4454 562.77 47.0553 564.517 44.0953C564.514 48.3955 565.231 52.6658 566.638 56.7294C568.3 53.1543 570.604 49.9149 573.436 47.1726C572.795 51.2622 573.205 55.4478 574.628 59.3353C574.457 57.5498 574.529 55.7493 574.844 53.9834C575.246 52.2505 576.227 50.5939 577.686 49.9759L577.96 62.0176C581.037 60.2718 582.076 55.0092 579.967 51.9064C582.452 53.3845 585.064 55.0219 586.434 57.838C587.803 60.6541 587.154 64.9929 584.522 66.0187" fill="#4E4FEB"/>
<path d="M550.175 53.9006H546.365C542.843 53.9006 539.987 56.756 539.987 60.2782C539.987 63.8005 542.843 66.6558 546.365 66.6558H550.175C553.697 66.6558 556.552 63.8005 556.552 60.2782C556.552 56.756 553.697 53.9006 550.175 53.9006Z" fill="#4E4FEB"/>
</g>
</g>
<defs>
<linearGradient id="paint0_linear_50_3" x1="191.538" y1="117.441" x2="192.405" y2="117.441" gradientUnits="userSpaceOnUse">
<stop stop-color="#808080" stop-opacity="0.25"/>
<stop offset="0.54" stop-color="#808080" stop-opacity="0.12"/>
<stop offset="1" stop-color="#808080" stop-opacity="0.1"/>
</linearGradient>
<linearGradient id="paint1_linear_50_3" x1="192.405" y1="117.779" x2="197.317" y2="117.779" gradientUnits="userSpaceOnUse">
<stop stop-color="#808080" stop-opacity="0.25"/>
<stop offset="0.54" stop-color="#808080" stop-opacity="0.12"/>
<stop offset="1" stop-color="#808080" stop-opacity="0.1"/>
</linearGradient>
<linearGradient id="paint2_linear_50_3" x1="269.79" y1="347.066" x2="271.268" y2="347.066" gradientUnits="userSpaceOnUse">
<stop stop-color="#808080" stop-opacity="0.25"/>
<stop offset="0.54" stop-color="#808080" stop-opacity="0.12"/>
<stop offset="1" stop-color="#808080" stop-opacity="0.1"/>
</linearGradient>
<clipPath id="clip0_50_3">
<rect width="720" height="518.07" fill="white"/>
</clipPath>
</defs>
</svg>
